<svg xmlns="http://www.w3.org/2000/svg" xmlns:xlink="http://www.w3.org/1999/xlink" width="2379" zoomAndPan="magnify" viewBox="0 0 1784.88 1784.99993" height="2379" preserveAspectRatio="xMidYMid meet" version="1.0"><defs><g/><clipPath id="3c2918256d"><path d="M 379.410156 265 L 1405.339844 265 L 1405.339844 1060 L 379.410156 1060 Z M 379.410156 265 " clip-rule="nonzero"/></clipPath></defs><g clip-path="url(#3c2918256d)"><path stroke-linecap="butt" transform="matrix(2.003771, 0, 0, 2.003771, 379.408704, 149.075497)" fill-opacity="1" fill="#b23c06" fill-rule="nonzero" stroke-linejoin="miter" d="M 478.699591 269.229948 L 460.253906 269.229948 L 460.253906 227.295353 C 467.73784 228.50986 475.334843 229.133683 482.968884 229.133683 C 498.977759 229.133683 512.002026 216.107466 512.002026 200.098592 C 512.002026 184.089718 498.977759 171.0635 482.968884 171.0635 C 436.573951 171.0635 398.828722 133.318271 398.828722 86.925287 C 398.828722 70.914464 385.804454 57.890196 369.79558 57.890196 C 369.690309 57.890196 369.588938 57.890196 369.485617 57.894095 C 369.382297 57.890196 369.280925 57.890196 369.177604 57.890196 C 353.166781 57.890196 340.142513 70.914464 340.142513 86.925287 C 340.142513 133.318271 302.397284 171.0635 256.0043 171.0635 C 209.609366 171.0635 171.864137 133.318271 171.864137 86.925287 C 171.864137 70.914464 158.839869 57.890196 142.830995 57.890196 C 142.727674 57.890196 142.624354 57.890196 142.522982 57.894095 C 142.419661 57.890196 142.316341 57.890196 142.21302 57.890196 C 126.202196 57.890196 113.179878 70.914464 113.179878 86.925287 C 113.179878 133.318271 75.434649 171.0635 29.039715 171.0635 C 13.024993 171.06545 0.000724754 184.089718 0.000724754 200.098592 C 0.000724754 216.107466 13.024993 229.133683 29.033867 229.133683 C 36.667909 229.133683 44.262961 228.50986 51.748845 227.295353 L 51.748845 269.229948 L 33.299261 269.229948 C 14.937402 269.229948 0.000724754 284.168574 0.000724754 302.530433 C 0.000724754 320.892292 14.939351 335.828969 33.299261 335.828969 L 109.037299 335.828969 L 109.037299 434.0539 C 109.037299 445.113124 118.035955 454.10983 129.093229 454.10983 L 155.58429 454.10983 C 166.643513 454.10983 175.64022 445.113124 175.64022 434.0539 L 175.64022 335.830919 L 336.360582 335.830919 L 336.360582 434.05585 C 336.360582 445.113124 345.357289 454.11178 356.416512 454.11178 L 382.905623 454.11178 C 393.964847 454.11178 402.961553 445.113124 402.961553 434.05585 L 402.961553 335.830919 L 478.699591 335.830919 C 497.06145 335.830919 512.000077 320.892292 512.000077 302.530433 C 512.000077 284.168574 497.06145 269.229948 478.699591 269.229948 Z M 29.035816 208.73465 C 24.271363 208.73465 20.397808 204.859146 20.397808 200.098592 C 20.397808 195.336088 24.271363 191.462533 29.033867 191.462533 C 86.67712 191.462533 133.571113 144.566591 133.571113 86.923338 C 133.571113 82.234913 137.327701 78.406196 141.986884 78.289229 C 142.098002 78.295077 142.934316 78.295077 143.045434 78.289229 C 147.706567 78.406196 151.461205 82.234913 151.461205 86.923338 C 151.461205 144.566591 198.355198 191.462533 255.998451 191.462533 C 313.641705 191.462533 360.537647 144.566591 360.537647 86.923338 C 360.537647 82.234913 364.292286 78.408145 368.951468 78.289229 C 369.062587 78.295077 369.90085 78.295077 370.010019 78.289229 C 374.671151 78.406196 378.427739 82.234913 378.427739 86.923338 C 378.427739 144.566591 425.321732 191.462533 482.964985 191.462533 C 487.727489 191.462533 491.601044 195.336088 491.601044 200.098592 C 491.601044 204.859146 487.727489 208.73465 482.964985 208.73465 C 440.301297 208.73465 400.173841 185.871514 378.244491 149.069818 C 376.404211 145.983841 373.076502 144.092875 369.483668 144.092875 C 365.890834 144.092875 362.561175 145.983841 360.722845 149.069818 C 338.793494 185.873463 298.666039 208.73465 256.000401 208.73465 C 213.336712 208.73465 173.209257 185.871514 151.279906 149.069818 C 149.441576 145.983841 146.111918 144.092875 142.519083 144.092875 C 138.926249 144.092875 135.59659 145.983841 133.75826 149.069818 C 111.82696 185.871514 71.699505 208.73465 29.035816 208.73465 Z M 439.854873 222.415882 L 439.854873 269.229948 L 379.858635 269.229948 L 379.858635 184.740834 C 389.190647 194.573854 399.898969 203.085147 411.663893 209.931612 C 420.596268 215.128843 430.060842 219.296764 439.854873 222.415882 Z M 306.395604 219.891346 C 313.606615 217.156269 320.603187 213.83051 327.303443 209.931612 C 339.214575 202.999372 350.045713 194.357465 359.461551 184.368489 L 359.461551 269.229948 L 306.397553 269.229948 Z M 285.99852 225.909295 L 285.99852 269.229948 L 226.002282 269.229948 L 226.002282 225.909295 C 235.819706 228.030295 245.874963 229.133683 256.000401 229.133683 C 266.125838 229.133683 276.179146 228.030295 285.99852 225.909295 Z M 142.339734 229.482635 C 136.707776 229.482635 132.140217 234.050193 132.140217 239.682151 L 132.140217 269.229948 L 72.145929 269.229948 L 72.145929 222.415882 C 81.93996 219.296764 91.404534 215.128843 100.338858 209.931612 C 116.737622 200.38906 131.103111 187.616271 142.517134 172.525587 C 153.933106 187.616271 168.298595 200.38711 184.697359 209.931612 C 191.397615 213.82856 198.392237 217.15432 205.605198 219.891346 L 205.605198 269.231897 L 152.53925 269.231897 L 152.53925 239.682151 C 152.53925 234.050193 147.973641 229.482635 142.339734 229.482635 Z M 155.243136 433.712747 L 129.438281 433.712747 L 129.438281 335.830919 L 155.243136 335.830919 Z M 382.56252 433.712747 L 356.757666 433.712747 L 356.757666 335.830919 L 382.56252 335.830919 Z M 478.699591 315.433835 L 33.299261 315.433835 C 26.185722 315.433835 20.397808 309.645922 20.397808 302.532383 C 20.397808 295.416894 26.185722 289.63093 33.299261 289.63093 L 478.699591 289.63093 C 485.81508 289.63093 491.602993 295.418844 491.602993 302.532383 C 491.602993 309.645922 485.81313 315.433835 478.699591 315.433835 Z M 478.699591 315.433835 " stroke="#b23c06" stroke-width="0.005" stroke-opacity="1" stroke-miterlimit="4"/></g><path stroke-linecap="butt" transform="matrix(2.003771, 0, 0, 2.003771, 379.408704, 149.075497)" fill-opacity="1" fill="#b23c06" fill-rule="nonzero" stroke-linejoin="miter" d="M 142.339734 195.8254 C 136.707776 195.8254 132.140217 200.392959 132.140217 206.024916 L 132.140217 210.105113 C 132.140217 215.737071 136.707776 220.304629 142.339734 220.304629 C 147.973641 220.304629 152.53925 215.737071 152.53925 210.105113 L 152.53925 206.024916 C 152.53925 200.392959 147.973641 195.8254 142.339734 195.8254 Z M 142.339734 195.8254 " stroke="#b23c06" stroke-width="0.005" stroke-opacity="1" stroke-miterlimit="4"/><g fill="#009aab" fill-opacity="1"><g transform="translate(110.031752, 1291.29341)"><g><path d="M 200.90625 4.53125 C 201.695312 7.070312 201.9375 9.546875 201.625 11.953125 C 201.070312 16.191406 198.894531 19.566406 195.09375 22.078125 C 191.289062 24.585938 187.175781 25.554688 182.75 24.984375 C 179.789062 24.597656 177.117188 23.445312 174.734375 21.53125 C 172.347656 19.625 170.632812 16.914062 169.59375 13.40625 L 157.8125 -25.90625 L 60.265625 -38.625 L 38.8125 -3.65625 C 36.894531 -0.539062 34.539062 1.628906 31.75 2.859375 C 28.957031 4.097656 25.992188 4.515625 22.859375 4.109375 C 18.609375 3.554688 14.921875 1.570312 11.796875 -1.84375 C 8.671875 -5.257812 7.382812 -9.085938 7.9375 -13.328125 C 8.25 -15.734375 9.117188 -18.0625 10.546875 -20.3125 L 108.46875 -174.65625 C 110.613281 -178.132812 113.519531 -180.617188 117.1875 -182.109375 C 120.863281 -183.609375 124.640625 -184.101562 128.515625 -183.59375 C 132.398438 -183.09375 135.921875 -181.648438 139.078125 -179.265625 C 142.242188 -176.878906 144.421875 -173.726562 145.609375 -169.8125 Z M 76.078125 -64.765625 L 149.234375 -55.203125 L 123.40625 -142.265625 Z M 76.078125 -64.765625 "/></g></g></g><g fill="#009aab" fill-opacity="1"><g transform="translate(318.960523, 1318.108713)"><g><path d="M 110.21875 -130.234375 C 126.550781 -128.703125 138.265625 -122.921875 145.359375 -112.890625 C 152.460938 -102.867188 155.132812 -88.488281 153.375 -69.75 L 146.9375 -1.328125 C 146.445312 3.867188 144.53125 7.804688 141.1875 10.484375 C 137.84375 13.160156 133.484375 14.25 128.109375 13.75 C 122.722656 13.238281 118.59375 11.347656 115.71875 8.078125 C 112.851562 4.816406 111.664062 0.585938 112.15625 -4.609375 L 118.40625 -71.09375 C 119.40625 -81.664062 118.132812 -89.550781 114.59375 -94.75 C 111.0625 -99.945312 105.03125 -102.945312 96.5 -103.75 C 86.488281 -104.695312 78.171875 -102.300781 71.546875 -96.5625 C 64.921875 -90.832031 61.109375 -82.675781 60.109375 -72.09375 L 54.28125 -10.0625 C 53.789062 -4.863281 51.828125 -0.929688 48.390625 1.734375 C 44.960938 4.410156 40.554688 5.5 35.171875 5 C 29.796875 4.488281 25.71875 2.609375 22.9375 -0.640625 C 20.164062 -3.898438 19.023438 -8.128906 19.515625 -13.328125 L 29.640625 -120.984375 C 30.097656 -125.804688 32.039062 -129.554688 35.46875 -132.234375 C 38.894531 -134.910156 43.296875 -136 48.671875 -135.5 C 53.492188 -135.039062 57.296875 -133.226562 60.078125 -130.0625 C 62.867188 -126.894531 64.046875 -122.992188 63.609375 -118.359375 L 62.90625 -110.84375 C 68.269531 -118.007812 75.039062 -123.265625 83.21875 -126.609375 C 91.394531 -129.953125 100.394531 -131.160156 110.21875 -130.234375 Z M 110.21875 -130.234375 "/></g></g></g><g fill="#009aab" fill-opacity="1"><g transform="translate(484.660184, 1333.701883)"><g><path d="M 142.1875 -130.953125 C 147.394531 -130.628906 151.488281 -128.878906 154.46875 -125.703125 C 157.445312 -122.523438 158.78125 -118.425781 158.46875 -113.40625 L 151.6875 -3.234375 C 150.363281 18.148438 143.410156 33.957031 130.828125 44.1875 C 118.253906 54.425781 100.34375 58.828125 77.09375 57.390625 C 56.820312 56.140625 40.132812 51.285156 27.03125 42.828125 C 20.40625 38.316406 17.273438 33.175781 17.640625 27.40625 C 17.890625 23.320312 19.0625 20.128906 21.15625 17.828125 C 23.257812 15.523438 25.890625 14.472656 29.046875 14.671875 C 30.722656 14.773438 32.742188 15.316406 35.109375 16.296875 C 37.472656 17.285156 39.925781 18.421875 42.46875 19.703125 C 48.976562 22.890625 54.835938 25.390625 60.046875 27.203125 C 65.265625 29.023438 71.3125 30.148438 78.1875 30.578125 C 102.550781 32.078125 115.46875 20.925781 116.9375 -2.875 L 118.03125 -20.71875 C 113.476562 -13.34375 107.160156 -7.804688 99.078125 -4.109375 C 91.003906 -0.410156 81.945312 1.128906 71.90625 0.515625 C 60.007812 -0.222656 49.632812 -3.707031 40.78125 -9.9375 C 31.9375 -16.175781 25.226562 -24.570312 20.65625 -35.125 C 16.082031 -45.675781 14.207031 -57.640625 15.03125 -71.015625 C 15.851562 -84.410156 19.132812 -96.109375 24.875 -106.109375 C 30.625 -116.117188 38.320312 -123.671875 47.96875 -128.765625 C 57.625 -133.867188 68.398438 -136.050781 80.296875 -135.3125 C 90.335938 -134.695312 99.132812 -132.054688 106.6875 -127.390625 C 114.25 -122.722656 119.835938 -116.453125 123.453125 -108.578125 L 123.890625 -115.828125 C 124.191406 -120.660156 126.015625 -124.46875 129.359375 -127.25 C 132.703125 -130.039062 136.976562 -131.273438 142.1875 -130.953125 Z M 82.796875 -25.96875 C 93.953125 -25.28125 102.867188 -28.367188 109.546875 -35.234375 C 116.222656 -42.109375 119.953125 -51.863281 120.734375 -64.5 C 121.523438 -77.34375 119.03125 -87.582031 113.25 -95.21875 C 107.46875 -102.851562 99 -107.015625 87.84375 -107.703125 C 76.863281 -108.378906 67.988281 -105.285156 61.21875 -98.421875 C 54.445312 -91.566406 50.664062 -81.71875 49.875 -68.875 C 49.09375 -56.238281 51.640625 -46.097656 57.515625 -38.453125 C 63.390625 -30.804688 71.816406 -26.644531 82.796875 -25.96875 Z M 82.796875 -25.96875 "/></g></g></g><g fill="#009aab" fill-opacity="1"><g transform="translate(656.229534, 1344.080622)"><g><path d="M 127.40625 -33.546875 C 130.570312 -33.453125 133.09375 -32.160156 134.96875 -29.671875 C 136.851562 -27.191406 137.734375 -23.898438 137.609375 -19.796875 C 137.429688 -14.035156 133.835938 -9.304688 126.828125 -5.609375 C 120.378906 -2.253906 113.117188 0.363281 105.046875 2.25 C 96.984375 4.144531 89.316406 4.984375 82.046875 4.765625 C 60.078125 4.085938 42.863281 -2.773438 30.40625 -15.828125 C 17.945312 -28.890625 12.054688 -46.410156 12.734375 -68.390625 C 13.171875 -82.347656 16.347656 -94.640625 22.265625 -105.265625 C 28.179688 -115.898438 36.300781 -124.039062 46.625 -129.6875 C 56.957031 -135.332031 68.550781 -137.957031 81.40625 -137.5625 C 93.695312 -137.1875 104.316406 -134.15625 113.265625 -128.46875 C 122.222656 -122.789062 129.066406 -114.9375 133.796875 -104.90625 C 138.523438 -94.882812 140.679688 -83.175781 140.265625 -69.78125 C 140.015625 -61.757812 136.351562 -57.859375 129.28125 -58.078125 L 46.875 -60.609375 C 47.601562 -47.734375 50.941406 -38.175781 56.890625 -31.9375 C 62.847656 -25.695312 71.691406 -22.394531 83.421875 -22.03125 C 89.378906 -21.84375 94.664062 -22.421875 99.28125 -23.765625 C 103.894531 -25.117188 109.125 -27.007812 114.96875 -29.4375 C 120.65625 -32.257812 124.800781 -33.628906 127.40625 -33.546875 Z M 81.484375 -112.953125 C 71.984375 -113.242188 64.300781 -110.5 58.4375 -104.71875 C 52.582031 -98.9375 48.921875 -90.472656 47.453125 -79.328125 L 110.578125 -77.390625 C 110.566406 -88.765625 108.039062 -97.460938 103 -103.484375 C 97.957031 -109.515625 90.785156 -112.671875 81.484375 -112.953125 Z M 81.484375 -112.953125 "/></g></g></g><g fill="#009aab" fill-opacity="1"><g transform="translate(806.499001, 1348.279685)"><g><path d="M 35.46875 2.015625 C 30.4375 1.960938 26.304688 0.476562 23.078125 -2.4375 C 19.847656 -5.351562 18.257812 -9.515625 18.3125 -14.921875 L 19.90625 -181.734375 C 19.957031 -187.140625 21.625 -191.222656 24.90625 -193.984375 C 28.1875 -196.742188 32.34375 -198.097656 37.375 -198.046875 C 42.40625 -198.003906 46.582031 -196.570312 49.90625 -193.75 C 53.238281 -190.925781 54.878906 -186.8125 54.828125 -181.40625 L 53.234375 -14.59375 C 53.179688 -9.1875 51.460938 -5.054688 48.078125 -2.203125 C 44.703125 0.648438 40.5 2.054688 35.46875 2.015625 Z M 35.46875 2.015625 "/></g></g></g><g fill="#ffb400" fill-opacity="1"><g transform="translate(880.006202, 1349.934804)"><g><path d="M 171.59375 -201.546875 C 177 -201.640625 181.316406 -200.082031 184.546875 -196.875 C 187.773438 -193.675781 189.4375 -189.378906 189.53125 -183.984375 L 192.5 -19.96875 C 192.59375 -14.570312 191.039062 -10.164062 187.84375 -6.75 C 184.644531 -3.34375 180.4375 -1.59375 175.21875 -1.5 C 169.8125 -1.40625 165.492188 -3.003906 162.265625 -6.296875 C 159.035156 -9.597656 157.375 -13.945312 157.28125 -19.34375 L 156.03125 -88.359375 L 55.171875 -86.53125 L 56.421875 -17.515625 C 56.515625 -12.117188 54.960938 -7.710938 51.765625 -4.296875 C 48.566406 -0.878906 44.269531 0.875 38.875 0.96875 C 33.65625 1.0625 29.382812 -0.535156 26.0625 -3.828125 C 22.738281 -7.128906 21.03125 -11.476562 20.9375 -16.875 L 17.96875 -180.890625 C 17.875 -186.285156 19.378906 -190.640625 22.484375 -193.953125 C 25.585938 -197.273438 29.84375 -198.984375 35.25 -199.078125 C 40.644531 -199.171875 45.003906 -197.617188 48.328125 -194.421875 C 51.648438 -191.222656 53.359375 -186.925781 53.453125 -181.53125 L 54.640625 -115.59375 L 155.5 -117.421875 L 154.3125 -183.359375 C 154.21875 -188.753906 155.722656 -193.109375 158.828125 -196.421875 C 161.929688 -199.742188 166.1875 -201.453125 171.59375 -201.546875 Z M 171.59375 -201.546875 "/></g></g></g><g fill="#ffb400" fill-opacity="1"><g transform="translate(1097.253055, 1345.3859)"><g><path d="M 69.8125 -143.9375 C 88.78125 -144.945312 103.117188 -141.003906 112.828125 -132.109375 C 122.546875 -123.210938 127.921875 -109.179688 128.953125 -90.015625 L 132.59375 -21.9375 C 132.863281 -16.90625 131.585938 -12.867188 128.765625 -9.828125 C 125.953125 -6.796875 121.9375 -5.140625 116.71875 -4.859375 C 111.882812 -4.597656 107.851562 -5.867188 104.625 -8.671875 C 101.394531 -11.484375 99.648438 -15.3125 99.390625 -20.15625 L 99.0625 -26.28125 C 96.289062 -18.863281 91.617188 -12.925781 85.046875 -8.46875 C 78.472656 -4.007812 70.722656 -1.539062 61.796875 -1.0625 C 52.679688 -0.570312 44.300781 -1.988281 36.65625 -5.3125 C 29.007812 -8.632812 22.875 -13.4375 18.25 -19.71875 C 13.625 -26 11.097656 -33.140625 10.671875 -41.140625 C 10.140625 -51.191406 12.269531 -59.238281 17.0625 -65.28125 C 21.863281 -71.320312 29.960938 -75.953125 41.359375 -79.171875 C 52.765625 -82.398438 68.609375 -84.554688 88.890625 -85.640625 L 95.875 -86.015625 L 95.53125 -92.421875 C 95.039062 -101.535156 92.726562 -108.082031 88.59375 -112.0625 C 84.46875 -116.039062 78.03125 -117.796875 69.28125 -117.328125 C 63.882812 -117.035156 58.4375 -115.945312 52.9375 -114.0625 C 47.4375 -112.1875 40.953125 -109.554688 33.484375 -106.171875 C 28.785156 -103.503906 25.316406 -102.113281 23.078125 -102 C 19.734375 -101.8125 16.925781 -102.867188 14.65625 -105.171875 C 12.382812 -107.472656 11.144531 -110.578125 10.9375 -114.484375 C 10.769531 -117.640625 11.414062 -120.421875 12.875 -122.828125 C 14.332031 -125.242188 16.863281 -127.578125 20.46875 -129.828125 C 26.800781 -133.710938 34.421875 -136.914062 43.328125 -139.4375 C 52.242188 -141.96875 61.070312 -143.46875 69.8125 -143.9375 Z M 67.4375 -26.5625 C 76.726562 -27.0625 84.140625 -30.582031 89.671875 -37.125 C 95.203125 -43.664062 97.703125 -51.867188 97.171875 -61.734375 L 96.859375 -67.578125 L 91.828125 -67.3125 C 79.359375 -66.644531 69.710938 -65.570312 62.890625 -64.09375 C 56.066406 -62.613281 51.242188 -60.394531 48.421875 -57.4375 C 45.597656 -54.488281 44.316406 -50.597656 44.578125 -45.765625 C 44.890625 -39.816406 47.242188 -35.046875 51.640625 -31.453125 C 56.035156 -27.867188 61.300781 -26.238281 67.4375 -26.5625 Z M 67.4375 -26.5625 "/></g></g></g><g fill="#ffb400" fill-opacity="1"><g transform="translate(1250.475811, 1337.045106)"><g><path d="M 78.734375 -4.171875 C 65.179688 -3.066406 53.015625 -4.972656 42.234375 -9.890625 C 31.460938 -14.804688 22.859375 -22.328125 16.421875 -32.453125 C 9.992188 -42.585938 6.203125 -54.710938 5.046875 -68.828125 C 3.898438 -82.929688 5.804688 -95.65625 10.765625 -107 C 15.722656 -118.34375 23.25 -127.410156 33.34375 -134.203125 C 43.445312 -141.003906 55.375 -144.96875 69.125 -146.09375 C 76.363281 -146.6875 83.734375 -146.257812 91.234375 -144.8125 C 98.734375 -143.375 105.414062 -141.117188 111.28125 -138.046875 C 117.53125 -134.640625 120.898438 -129.960938 121.390625 -124.015625 C 121.710938 -119.929688 121 -116.554688 119.25 -113.890625 C 117.507812 -111.222656 115.0625 -109.757812 111.90625 -109.5 C 109.875 -109.332031 107.703125 -109.617188 105.390625 -110.359375 C 103.085938 -111.109375 100.769531 -112.046875 98.4375 -113.171875 C 94.15625 -115.242188 90.097656 -116.828125 86.265625 -117.921875 C 82.441406 -119.015625 78.113281 -119.363281 73.28125 -118.96875 C 61.769531 -118.03125 53.210938 -113.546875 47.609375 -105.515625 C 42.003906 -97.492188 39.773438 -86.425781 40.921875 -72.3125 C 42.066406 -58.382812 46.050781 -47.914062 52.875 -40.90625 C 59.707031 -33.894531 68.878906 -30.859375 80.390625 -31.796875 C 85.035156 -32.171875 89.113281 -33.203125 92.625 -34.890625 C 96.132812 -36.578125 100.019531 -38.804688 104.28125 -41.578125 C 106.914062 -43.472656 109.222656 -44.921875 111.203125 -45.921875 C 113.179688 -46.929688 115.1875 -47.519531 117.21875 -47.6875 C 120.1875 -47.925781 122.800781 -46.832031 125.0625 -44.40625 C 127.320312 -41.976562 128.613281 -38.8125 128.9375 -34.90625 C 129.1875 -31.75 128.710938 -28.953125 127.515625 -26.515625 C 126.316406 -24.078125 124.210938 -21.804688 121.203125 -19.703125 C 115.742188 -15.503906 109.296875 -12.023438 101.859375 -9.265625 C 94.429688 -6.515625 86.722656 -4.816406 78.734375 -4.171875 Z M 78.734375 -4.171875 "/></g></g></g><g fill="#ffb400" fill-opacity="1"><g transform="translate(1388.931716, 1325.81522)"><g><path d="M 135.9375 -42.171875 C 140.03125 -39.054688 142.320312 -35.273438 142.8125 -30.828125 C 143.28125 -26.566406 142.164062 -22.601562 139.46875 -18.9375 C 136.78125 -15.269531 133.40625 -13.210938 129.34375 -12.765625 C 125.257812 -12.328125 121.273438 -13.582031 117.390625 -16.53125 L 45.9375 -68.28125 L 51.140625 -20.78125 C 51.722656 -15.40625 50.5 -11.148438 47.46875 -8.015625 C 44.445312 -4.878906 40.429688 -3.035156 35.421875 -2.484375 C 30.421875 -1.941406 26.148438 -2.878906 22.609375 -5.296875 C 19.066406 -7.710938 17.003906 -11.609375 16.421875 -16.984375 L -1.75 -182.828125 C -2.332031 -188.203125 -1.160156 -192.453125 1.765625 -195.578125 C 4.703125 -198.703125 8.671875 -200.535156 13.671875 -201.078125 C 18.679688 -201.628906 23.003906 -200.703125 26.640625 -198.296875 C 30.273438 -195.890625 32.382812 -192 32.96875 -186.625 L 44.421875 -82.171875 L 97.625 -145.640625 C 100.582031 -149.335938 104.195312 -151.421875 108.46875 -151.890625 C 112.71875 -152.347656 116.585938 -151.175781 120.078125 -148.375 C 123.578125 -145.570312 125.5625 -142.035156 126.03125 -137.765625 C 126.5 -133.515625 125.164062 -129.4375 122.03125 -125.53125 L 82.859375 -80.203125 Z M 135.9375 -42.171875 "/></g></g></g><g fill="#ffb400" fill-opacity="1"><g transform="translate(1540.326022, 1309.097605)"><g><path d="M 67.296875 -7 C 47.179688 -4.226562 30.394531 -5.960938 16.9375 -12.203125 C 10.539062 -14.898438 6.898438 -19.476562 6.015625 -25.9375 C 5.503906 -29.625 6.109375 -32.765625 7.828125 -35.359375 C 9.546875 -37.953125 11.878906 -39.453125 14.828125 -39.859375 C 17.960938 -40.285156 22.5 -39.394531 28.4375 -37.1875 C 34.738281 -35.238281 40.4375 -33.859375 45.53125 -33.046875 C 50.625 -32.242188 56.953125 -32.363281 64.515625 -33.40625 C 72.265625 -34.476562 78.128906 -36.601562 82.109375 -39.78125 C 86.097656 -42.96875 87.773438 -46.867188 87.140625 -51.484375 C 86.703125 -54.617188 85.476562 -56.988281 83.46875 -58.59375 C 81.457031 -60.195312 78.082031 -61.472656 73.34375 -62.421875 C 68.613281 -63.378906 61.492188 -64.234375 51.984375 -64.984375 C 35.097656 -66.046875 22.679688 -69.132812 14.734375 -74.25 C 6.796875 -79.363281 2.09375 -87.269531 0.625 -97.96875 C -0.488281 -106.09375 0.894531 -113.757812 4.78125 -120.96875 C 8.675781 -128.1875 14.578125 -134.171875 22.484375 -138.921875 C 30.390625 -143.671875 39.691406 -146.78125 50.390625 -148.25 C 58.140625 -149.3125 65.75 -149.375 73.21875 -148.4375 C 80.6875 -147.5 87.535156 -145.570312 93.765625 -142.65625 C 100.179688 -139.78125 103.8125 -135.296875 104.65625 -129.203125 C 105.15625 -125.503906 104.5625 -122.273438 102.875 -119.515625 C 101.1875 -116.753906 98.863281 -115.171875 95.90625 -114.765625 C 93.882812 -114.484375 91.84375 -114.625 89.78125 -115.1875 C 87.726562 -115.75 85.113281 -116.660156 81.9375 -117.921875 C 76.207031 -119.941406 71.304688 -121.375 67.234375 -122.21875 C 63.171875 -123.070312 58.28125 -123.109375 52.5625 -122.328125 C 45.726562 -121.390625 40.515625 -119.265625 36.921875 -115.953125 C 33.335938 -112.640625 31.878906 -108.582031 32.546875 -103.78125 C 33.179688 -99.15625 35.691406 -95.921875 40.078125 -94.078125 C 44.472656 -92.242188 52.648438 -90.929688 64.609375 -90.140625 C 77.328125 -89.242188 87.421875 -87.617188 94.890625 -85.265625 C 102.367188 -82.910156 107.96875 -79.453125 111.6875 -74.890625 C 115.414062 -70.328125 117.816406 -64.171875 118.890625 -56.421875 C 120.617188 -43.867188 116.785156 -33.085938 107.390625 -24.078125 C 98.003906 -15.078125 84.640625 -9.382812 67.296875 -7 Z M 67.296875 -7 "/></g></g></g><g fill="#3fb34f" fill-opacity="1"><g transform="translate(332.691589, 1527.146955)"><g><path d="M 49.71875 -72 C 55.851562 -72 61.265625 -70.507812 65.953125 -67.53125 C 70.648438 -64.5625 74.316406 -60.347656 76.953125 -54.890625 C 79.585938 -49.429688 80.90625 -43.0625 80.90625 -35.78125 C 80.90625 -28.5 79.585938 -22.054688 76.953125 -16.453125 C 74.316406 -10.847656 70.628906 -6.507812 65.890625 -3.4375 C 61.148438 -0.375 55.757812 1.15625 49.71875 1.15625 C 44.644531 1.15625 40.117188 0.0546875 36.140625 -2.140625 C 32.160156 -4.347656 29.117188 -7.421875 27.015625 -11.359375 L 27.015625 -7.765625 C 27.015625 -5.171875 26.195312 -3.109375 24.5625 -1.578125 C 22.9375 -0.046875 20.785156 0.71875 18.109375 0.71875 C 15.421875 0.71875 13.285156 -0.046875 11.703125 -1.578125 C 10.128906 -3.109375 9.34375 -5.171875 9.34375 -7.765625 L 9.34375 -93.6875 C 9.34375 -96.1875 10.179688 -98.203125 11.859375 -99.734375 C 13.535156 -101.265625 15.710938 -102.03125 18.390625 -102.03125 C 21.078125 -102.03125 23.234375 -101.3125 24.859375 -99.875 C 26.484375 -98.4375 27.296875 -96.472656 27.296875 -93.984375 L 27.296875 -60.0625 C 29.410156 -63.894531 32.429688 -66.84375 36.359375 -68.90625 C 40.285156 -70.96875 44.738281 -72 49.71875 -72 Z M 44.984375 -12.796875 C 50.628906 -12.796875 55.03125 -14.804688 58.1875 -18.828125 C 61.351562 -22.847656 62.9375 -28.5 62.9375 -35.78125 C 62.9375 -42.96875 61.378906 -48.476562 58.265625 -52.3125 C 55.148438 -56.144531 50.722656 -58.0625 44.984375 -58.0625 C 39.234375 -58.0625 34.800781 -56.117188 31.6875 -52.234375 C 28.570312 -48.359375 27.015625 -42.78125 27.015625 -35.5 C 27.015625 -28.21875 28.570312 -22.613281 31.6875 -18.6875 C 34.800781 -14.757812 39.234375 -12.796875 44.984375 -12.796875 Z M 44.984375 -12.796875 "/></g></g></g><g fill="#3fb34f" fill-opacity="1"><g transform="translate(419.051416, 1527.146955)"><g><path d="M 39.8125 -72 C 49.582031 -72 56.835938 -69.578125 61.578125 -64.734375 C 66.316406 -59.898438 68.6875 -52.550781 68.6875 -42.6875 L 68.6875 -7.609375 C 68.6875 -5.023438 67.921875 -2.988281 66.390625 -1.5 C 64.859375 -0.0195312 62.75 0.71875 60.0625 0.71875 C 57.570312 0.71875 55.535156 -0.046875 53.953125 -1.578125 C 52.378906 -3.109375 51.59375 -5.117188 51.59375 -7.609375 L 51.59375 -10.78125 C 49.957031 -7.039062 47.390625 -4.113281 43.890625 -2 C 40.398438 0.101562 36.359375 1.15625 31.765625 1.15625 C 27.066406 1.15625 22.800781 0.195312 18.96875 -1.71875 C 15.132812 -3.632812 12.113281 -6.269531 9.90625 -9.625 C 7.707031 -12.976562 6.609375 -16.71875 6.609375 -20.84375 C 6.609375 -26.007812 7.925781 -30.078125 10.5625 -33.046875 C 13.195312 -36.015625 17.484375 -38.171875 23.421875 -39.515625 C 29.359375 -40.859375 37.550781 -41.53125 48 -41.53125 L 51.59375 -41.53125 L 51.59375 -44.828125 C 51.59375 -49.523438 50.582031 -52.953125 48.5625 -55.109375 C 46.550781 -57.265625 43.296875 -58.34375 38.796875 -58.34375 C 36.015625 -58.34375 33.1875 -57.9375 30.3125 -57.125 C 27.445312 -56.3125 24.050781 -55.132812 20.125 -53.59375 C 17.625 -52.351562 15.800781 -51.734375 14.65625 -51.734375 C 12.9375 -51.734375 11.523438 -52.351562 10.421875 -53.59375 C 9.316406 -54.84375 8.765625 -56.472656 8.765625 -58.484375 C 8.765625 -60.117188 9.171875 -61.53125 9.984375 -62.71875 C 10.796875 -63.914062 12.160156 -65.046875 14.078125 -66.109375 C 17.429688 -67.921875 21.429688 -69.351562 26.078125 -70.40625 C 30.722656 -71.46875 35.300781 -72 39.8125 -72 Z M 35.34375 -11.78125 C 40.132812 -11.78125 44.039062 -13.382812 47.0625 -16.59375 C 50.082031 -19.800781 51.59375 -23.945312 51.59375 -29.03125 L 51.59375 -32.046875 L 49 -32.046875 C 42.582031 -32.046875 37.597656 -31.757812 34.046875 -31.1875 C 30.503906 -30.613281 27.96875 -29.609375 26.4375 -28.171875 C 24.90625 -26.734375 24.140625 -24.769531 24.140625 -22.28125 C 24.140625 -19.207031 25.21875 -16.6875 27.375 -14.71875 C 29.53125 -12.757812 32.1875 -11.78125 35.34375 -11.78125 Z M 35.34375 -11.78125 "/></g></g></g><g fill="#3fb34f" fill-opacity="1"><g transform="translate(496.645931, 1527.146955)"><g><path d="M 58.34375 -66.53125 C 59.113281 -68.257812 60.144531 -69.53125 61.4375 -70.34375 C 62.726562 -71.15625 64.140625 -71.5625 65.671875 -71.5625 C 67.878906 -71.5625 69.867188 -70.816406 71.640625 -69.328125 C 73.410156 -67.847656 74.296875 -66.003906 74.296875 -63.796875 C 74.296875 -62.742188 74.007812 -61.644531 73.4375 -60.5 L 34.203125 21.703125 C 32.578125 24.953125 30.035156 26.578125 26.578125 26.578125 C 24.378906 26.578125 22.441406 25.882812 20.765625 24.5 C 19.085938 23.113281 18.25 21.363281 18.25 19.25 C 18.25 18.195312 18.535156 17 19.109375 15.65625 L 28.890625 -4.890625 L 2.15625 -60.5 C 1.675781 -61.457031 1.4375 -62.554688 1.4375 -63.796875 C 1.4375 -66.003906 2.367188 -67.875 4.234375 -69.40625 C 6.109375 -70.9375 8.242188 -71.703125 10.640625 -71.703125 C 12.265625 -71.703125 13.742188 -71.296875 15.078125 -70.484375 C 16.421875 -69.671875 17.476562 -68.398438 18.25 -66.671875 L 38.375 -22.28125 Z M 58.34375 -66.53125 "/></g></g></g><g fill="#3fb34f" fill-opacity="1"><g transform="translate(572.228738, 1527.146955)"><g/></g></g><g fill="#3fb34f" fill-opacity="1"><g transform="translate(611.169692, 1527.146955)"><g><path d="M 39.8125 -72 C 49.582031 -72 56.835938 -69.578125 61.578125 -64.734375 C 66.316406 -59.898438 68.6875 -52.550781 68.6875 -42.6875 L 68.6875 -7.609375 C 68.6875 -5.023438 67.921875 -2.988281 66.390625 -1.5 C 64.859375 -0.0195312 62.75 0.71875 60.0625 0.71875 C 57.570312 0.71875 55.535156 -0.046875 53.953125 -1.578125 C 52.378906 -3.109375 51.59375 -5.117188 51.59375 -7.609375 L 51.59375 -10.78125 C 49.957031 -7.039062 47.390625 -4.113281 43.890625 -2 C 40.398438 0.101562 36.359375 1.15625 31.765625 1.15625 C 27.066406 1.15625 22.800781 0.195312 18.96875 -1.71875 C 15.132812 -3.632812 12.113281 -6.269531 9.90625 -9.625 C 7.707031 -12.976562 6.609375 -16.71875 6.609375 -20.84375 C 6.609375 -26.007812 7.925781 -30.078125 10.5625 -33.046875 C 13.195312 -36.015625 17.484375 -38.171875 23.421875 -39.515625 C 29.359375 -40.859375 37.550781 -41.53125 48 -41.53125 L 51.59375 -41.53125 L 51.59375 -44.828125 C 51.59375 -49.523438 50.582031 -52.953125 48.5625 -55.109375 C 46.550781 -57.265625 43.296875 -58.34375 38.796875 -58.34375 C 36.015625 -58.34375 33.1875 -57.9375 30.3125 -57.125 C 27.445312 -56.3125 24.050781 -55.132812 20.125 -53.59375 C 17.625 -52.351562 15.800781 -51.734375 14.65625 -51.734375 C 12.9375 -51.734375 11.523438 -52.351562 10.421875 -53.59375 C 9.316406 -54.84375 8.765625 -56.472656 8.765625 -58.484375 C 8.765625 -60.117188 9.171875 -61.53125 9.984375 -62.71875 C 10.796875 -63.914062 12.160156 -65.046875 14.078125 -66.109375 C 17.429688 -67.921875 21.429688 -69.351562 26.078125 -70.40625 C 30.722656 -71.46875 35.300781 -72 39.8125 -72 Z M 35.34375 -11.78125 C 40.132812 -11.78125 44.039062 -13.382812 47.0625 -16.59375 C 50.082031 -19.800781 51.59375 -23.945312 51.59375 -29.03125 L 51.59375 -32.046875 L 49 -32.046875 C 42.582031 -32.046875 37.597656 -31.757812 34.046875 -31.1875 C 30.503906 -30.613281 27.96875 -29.609375 26.4375 -28.171875 C 24.90625 -26.734375 24.140625 -24.769531 24.140625 -22.28125 C 24.140625 -19.207031 25.21875 -16.6875 27.375 -14.71875 C 29.53125 -12.757812 32.1875 -11.78125 35.34375 -11.78125 Z M 35.34375 -11.78125 "/></g></g></g><g fill="#3fb34f" fill-opacity="1"><g transform="translate(688.764207, 1527.146955)"><g><path d="M 48.578125 -71.703125 C 51.066406 -71.898438 53.03125 -71.375 54.46875 -70.125 C 55.90625 -68.882812 56.625 -67.015625 56.625 -64.515625 C 56.625 -61.929688 56 -60.015625 54.75 -58.765625 C 53.5 -57.523438 51.25 -56.710938 48 -56.328125 L 43.6875 -55.90625 C 38.03125 -55.320312 33.882812 -53.398438 31.25 -50.140625 C 28.613281 -46.890625 27.296875 -42.820312 27.296875 -37.9375 L 27.296875 -7.765625 C 27.296875 -4.984375 26.429688 -2.847656 24.703125 -1.359375 C 22.984375 0.117188 20.832031 0.859375 18.25 0.859375 C 15.664062 0.859375 13.535156 0.117188 11.859375 -1.359375 C 10.179688 -2.847656 9.34375 -4.984375 9.34375 -7.765625 L 9.34375 -63.375 C 9.34375 -66.050781 10.179688 -68.109375 11.859375 -69.546875 C 13.535156 -70.984375 15.617188 -71.703125 18.109375 -71.703125 C 20.597656 -71.703125 22.609375 -71.007812 24.140625 -69.625 C 25.671875 -68.238281 26.4375 -66.25 26.4375 -63.65625 L 26.4375 -57.90625 C 28.257812 -62.125 30.96875 -65.382812 34.5625 -67.6875 C 38.15625 -69.988281 42.15625 -71.28125 46.5625 -71.5625 Z M 48.578125 -71.703125 "/></g></g></g><g fill="#3fb34f" fill-opacity="1"><g transform="translate(743.798835, 1527.146955)"><g><path d="M 64.953125 -19.25 C 66.578125 -19.25 67.894531 -18.625 68.90625 -17.375 C 69.914062 -16.132812 70.421875 -14.460938 70.421875 -12.359375 C 70.421875 -9.390625 68.644531 -6.898438 65.09375 -4.890625 C 61.84375 -3.066406 58.15625 -1.601562 54.03125 -0.5 C 49.914062 0.601562 45.988281 1.15625 42.25 1.15625 C 30.945312 1.15625 21.988281 -2.097656 15.375 -8.609375 C 8.757812 -15.128906 5.453125 -24.039062 5.453125 -35.34375 C 5.453125 -42.53125 6.890625 -48.898438 9.765625 -54.453125 C 12.640625 -60.015625 16.6875 -64.328125 21.90625 -67.390625 C 27.132812 -70.460938 33.050781 -72 39.65625 -72 C 45.976562 -72 51.488281 -70.609375 56.1875 -67.828125 C 60.882812 -65.046875 64.523438 -61.113281 67.109375 -56.03125 C 69.691406 -50.957031 70.984375 -44.972656 70.984375 -38.078125 C 70.984375 -33.960938 69.164062 -31.90625 65.53125 -31.90625 L 23.140625 -31.90625 C 23.710938 -25.289062 25.578125 -20.425781 28.734375 -17.3125 C 31.898438 -14.195312 36.5 -12.640625 42.53125 -12.640625 C 45.601562 -12.640625 48.3125 -13.019531 50.65625 -13.78125 C 53 -14.550781 55.65625 -15.609375 58.625 -16.953125 C 61.5 -18.484375 63.609375 -19.25 64.953125 -19.25 Z M 40.09375 -59.34375 C 35.207031 -59.34375 31.300781 -57.8125 28.375 -54.75 C 25.457031 -51.6875 23.710938 -47.28125 23.140625 -41.53125 L 55.609375 -41.53125 C 55.421875 -47.375 53.984375 -51.800781 51.296875 -54.8125 C 48.617188 -57.832031 44.882812 -59.34375 40.09375 -59.34375 Z M 40.09375 -59.34375 "/></g></g></g><g fill="#3fb34f" fill-opacity="1"><g transform="translate(820.100111, 1527.146955)"><g><path d="M 39.8125 -72 C 49.582031 -72 56.835938 -69.578125 61.578125 -64.734375 C 66.316406 -59.898438 68.6875 -52.550781 68.6875 -42.6875 L 68.6875 -7.609375 C 68.6875 -5.023438 67.921875 -2.988281 66.390625 -1.5 C 64.859375 -0.0195312 62.75 0.71875 60.0625 0.71875 C 57.570312 0.71875 55.535156 -0.046875 53.953125 -1.578125 C 52.378906 -3.109375 51.59375 -5.117188 51.59375 -7.609375 L 51.59375 -10.78125 C 49.957031 -7.039062 47.390625 -4.113281 43.890625 -2 C 40.398438 0.101562 36.359375 1.15625 31.765625 1.15625 C 27.066406 1.15625 22.800781 0.195312 18.96875 -1.71875 C 15.132812 -3.632812 12.113281 -6.269531 9.90625 -9.625 C 7.707031 -12.976562 6.609375 -16.71875 6.609375 -20.84375 C 6.609375 -26.007812 7.925781 -30.078125 10.5625 -33.046875 C 13.195312 -36.015625 17.484375 -38.171875 23.421875 -39.515625 C 29.359375 -40.859375 37.550781 -41.53125 48 -41.53125 L 51.59375 -41.53125 L 51.59375 -44.828125 C 51.59375 -49.523438 50.582031 -52.953125 48.5625 -55.109375 C 46.550781 -57.265625 43.296875 -58.34375 38.796875 -58.34375 C 36.015625 -58.34375 33.1875 -57.9375 30.3125 -57.125 C 27.445312 -56.3125 24.050781 -55.132812 20.125 -53.59375 C 17.625 -52.351562 15.800781 -51.734375 14.65625 -51.734375 C 12.9375 -51.734375 11.523438 -52.351562 10.421875 -53.59375 C 9.316406 -54.84375 8.765625 -56.472656 8.765625 -58.484375 C 8.765625 -60.117188 9.171875 -61.53125 9.984375 -62.71875 C 10.796875 -63.914062 12.160156 -65.046875 14.078125 -66.109375 C 17.429688 -67.921875 21.429688 -69.351562 26.078125 -70.40625 C 30.722656 -71.46875 35.300781 -72 39.8125 -72 Z M 35.34375 -11.78125 C 40.132812 -11.78125 44.039062 -13.382812 47.0625 -16.59375 C 50.082031 -19.800781 51.59375 -23.945312 51.59375 -29.03125 L 51.59375 -32.046875 L 49 -32.046875 C 42.582031 -32.046875 37.597656 -31.757812 34.046875 -31.1875 C 30.503906 -30.613281 27.96875 -29.609375 26.4375 -28.171875 C 24.90625 -26.734375 24.140625 -24.769531 24.140625 -22.28125 C 24.140625 -19.207031 25.21875 -16.6875 27.375 -14.71875 C 29.53125 -12.757812 32.1875 -11.78125 35.34375 -11.78125 Z M 35.34375 -11.78125 "/></g></g></g><g fill="#3fb34f" fill-opacity="1"><g transform="translate(897.694626, 1527.146955)"><g/></g></g><g fill="#3fb34f" fill-opacity="1"><g transform="translate(936.635596, 1527.146955)"><g><path d="M 34.78125 1.15625 C 24.332031 1.15625 15.898438 -0.90625 9.484375 -5.03125 C 6.421875 -6.851562 4.890625 -9.441406 4.890625 -12.796875 C 4.890625 -14.703125 5.414062 -16.253906 6.46875 -17.453125 C 7.519531 -18.648438 8.8125 -19.25 10.34375 -19.25 C 11.976562 -19.25 14.226562 -18.484375 17.09375 -16.953125 C 20.164062 -15.515625 22.96875 -14.410156 25.5 -13.640625 C 28.039062 -12.878906 31.273438 -12.5 35.203125 -12.5 C 39.234375 -12.5 42.375 -13.171875 44.625 -14.515625 C 46.875 -15.859375 48 -17.726562 48 -20.125 C 48 -21.75 47.539062 -23.039062 46.625 -24 C 45.71875 -24.957031 44.085938 -25.84375 41.734375 -26.65625 C 39.390625 -27.46875 35.828125 -28.398438 31.046875 -29.453125 C 22.515625 -31.179688 16.40625 -33.625 12.71875 -36.78125 C 9.03125 -39.945312 7.1875 -44.304688 7.1875 -49.859375 C 7.1875 -54.078125 8.429688 -57.882812 10.921875 -61.28125 C 13.410156 -64.6875 16.832031 -67.320312 21.1875 -69.1875 C 25.550781 -71.0625 30.507812 -72 36.0625 -72 C 40.09375 -72 43.972656 -71.492188 47.703125 -70.484375 C 51.441406 -69.484375 54.796875 -68.023438 57.765625 -66.109375 C 60.835938 -64.191406 62.375 -61.648438 62.375 -58.484375 C 62.375 -56.566406 61.84375 -54.960938 60.78125 -53.671875 C 59.726562 -52.378906 58.4375 -51.734375 56.90625 -51.734375 C 55.851562 -51.734375 54.820312 -51.945312 53.8125 -52.375 C 52.8125 -52.8125 51.546875 -53.457031 50.015625 -54.3125 C 47.234375 -55.75 44.835938 -56.828125 42.828125 -57.546875 C 40.816406 -58.265625 38.320312 -58.625 35.34375 -58.625 C 31.800781 -58.625 29 -57.90625 26.9375 -56.46875 C 24.882812 -55.03125 23.859375 -53.066406 23.859375 -50.578125 C 23.859375 -48.179688 24.910156 -46.359375 27.015625 -45.109375 C 29.117188 -43.867188 33.191406 -42.628906 39.234375 -41.390625 C 45.648438 -40.046875 50.675781 -38.507812 54.3125 -36.78125 C 57.957031 -35.0625 60.566406 -32.90625 62.140625 -30.3125 C 63.722656 -27.726562 64.515625 -24.425781 64.515625 -20.40625 C 64.515625 -13.894531 61.804688 -8.671875 56.390625 -4.734375 C 50.984375 -0.804688 43.78125 1.15625 34.78125 1.15625 Z M 34.78125 1.15625 "/></g></g></g><g fill="#3fb34f" fill-opacity="1"><g transform="translate(1006.326979, 1527.146955)"><g><path d="M 39.8125 -72 C 49.582031 -72 56.835938 -69.578125 61.578125 -64.734375 C 66.316406 -59.898438 68.6875 -52.550781 68.6875 -42.6875 L 68.6875 -7.609375 C 68.6875 -5.023438 67.921875 -2.988281 66.390625 -1.5 C 64.859375 -0.0195312 62.75 0.71875 60.0625 0.71875 C 57.570312 0.71875 55.535156 -0.046875 53.953125 -1.578125 C 52.378906 -3.109375 51.59375 -5.117188 51.59375 -7.609375 L 51.59375 -10.78125 C 49.957031 -7.039062 47.390625 -4.113281 43.890625 -2 C 40.398438 0.101562 36.359375 1.15625 31.765625 1.15625 C 27.066406 1.15625 22.800781 0.195312 18.96875 -1.71875 C 15.132812 -3.632812 12.113281 -6.269531 9.90625 -9.625 C 7.707031 -12.976562 6.609375 -16.71875 6.609375 -20.84375 C 6.609375 -26.007812 7.925781 -30.078125 10.5625 -33.046875 C 13.195312 -36.015625 17.484375 -38.171875 23.421875 -39.515625 C 29.359375 -40.859375 37.550781 -41.53125 48 -41.53125 L 51.59375 -41.53125 L 51.59375 -44.828125 C 51.59375 -49.523438 50.582031 -52.953125 48.5625 -55.109375 C 46.550781 -57.265625 43.296875 -58.34375 38.796875 -58.34375 C 36.015625 -58.34375 33.1875 -57.9375 30.3125 -57.125 C 27.445312 -56.3125 24.050781 -55.132812 20.125 -53.59375 C 17.625 -52.351562 15.800781 -51.734375 14.65625 -51.734375 C 12.9375 -51.734375 11.523438 -52.351562 10.421875 -53.59375 C 9.316406 -54.84375 8.765625 -56.472656 8.765625 -58.484375 C 8.765625 -60.117188 9.171875 -61.53125 9.984375 -62.71875 C 10.796875 -63.914062 12.160156 -65.046875 14.078125 -66.109375 C 17.429688 -67.921875 21.429688 -69.351562 26.078125 -70.40625 C 30.722656 -71.46875 35.300781 -72 39.8125 -72 Z M 35.34375 -11.78125 C 40.132812 -11.78125 44.039062 -13.382812 47.0625 -16.59375 C 50.082031 -19.800781 51.59375 -23.945312 51.59375 -29.03125 L 51.59375 -32.046875 L 49 -32.046875 C 42.582031 -32.046875 37.597656 -31.757812 34.046875 -31.1875 C 30.503906 -30.613281 27.96875 -29.609375 26.4375 -28.171875 C 24.90625 -26.734375 24.140625 -24.769531 24.140625 -22.28125 C 24.140625 -19.207031 25.21875 -16.6875 27.375 -14.71875 C 29.53125 -12.757812 32.1875 -11.78125 35.34375 -11.78125 Z M 35.34375 -11.78125 "/></g></g></g><g fill="#3fb34f" fill-opacity="1"><g transform="translate(1083.921461, 1527.146955)"><g><path d="M 45.84375 -12.5 C 50.632812 -12.21875 53.03125 -10.0625 53.03125 -6.03125 C 53.03125 -3.738281 52.09375 -1.992188 50.21875 -0.796875 C 48.351562 0.398438 45.695312 0.90625 42.25 0.71875 L 38.375 0.4375 C 22.28125 -0.71875 14.234375 -9.34375 14.234375 -25.4375 L 14.234375 -56.765625 L 7.046875 -56.765625 C 4.453125 -56.765625 2.460938 -57.335938 1.078125 -58.484375 C -0.304688 -59.640625 -1 -61.316406 -1 -63.515625 C -1 -65.722656 -0.304688 -67.398438 1.078125 -68.546875 C 2.460938 -69.691406 4.453125 -70.265625 7.046875 -70.265625 L 14.234375 -70.265625 L 14.234375 -83.484375 C 14.234375 -86.078125 15.046875 -88.140625 16.671875 -89.671875 C 18.296875 -91.203125 20.5 -91.96875 23.28125 -91.96875 C 25.957031 -91.96875 28.109375 -91.203125 29.734375 -89.671875 C 31.367188 -88.140625 32.1875 -86.078125 32.1875 -83.484375 L 32.1875 -70.265625 L 44.40625 -70.265625 C 46.988281 -70.265625 48.972656 -69.691406 50.359375 -68.546875 C 51.753906 -67.398438 52.453125 -65.722656 52.453125 -63.515625 C 52.453125 -61.316406 51.753906 -59.640625 50.359375 -58.484375 C 48.972656 -57.335938 46.988281 -56.765625 44.40625 -56.765625 L 32.1875 -56.765625 L 32.1875 -24.140625 C 32.1875 -17.054688 35.445312 -13.273438 41.96875 -12.796875 Z M 45.84375 -12.5 "/></g></g></g><g fill="#3fb34f" fill-opacity="1"><g transform="translate(1136.944398, 1527.146955)"><g><path d="M 64.953125 -19.25 C 66.578125 -19.25 67.894531 -18.625 68.90625 -17.375 C 69.914062 -16.132812 70.421875 -14.460938 70.421875 -12.359375 C 70.421875 -9.390625 68.644531 -6.898438 65.09375 -4.890625 C 61.84375 -3.066406 58.15625 -1.601562 54.03125 -0.5 C 49.914062 0.601562 45.988281 1.15625 42.25 1.15625 C 30.945312 1.15625 21.988281 -2.097656 15.375 -8.609375 C 8.757812 -15.128906 5.453125 -24.039062 5.453125 -35.34375 C 5.453125 -42.53125 6.890625 -48.898438 9.765625 -54.453125 C 12.640625 -60.015625 16.6875 -64.328125 21.90625 -67.390625 C 27.132812 -70.460938 33.050781 -72 39.65625 -72 C 45.976562 -72 51.488281 -70.609375 56.1875 -67.828125 C 60.882812 -65.046875 64.523438 -61.113281 67.109375 -56.03125 C 69.691406 -50.957031 70.984375 -44.972656 70.984375 -38.078125 C 70.984375 -33.960938 69.164062 -31.90625 65.53125 -31.90625 L 23.140625 -31.90625 C 23.710938 -25.289062 25.578125 -20.425781 28.734375 -17.3125 C 31.898438 -14.195312 36.5 -12.640625 42.53125 -12.640625 C 45.601562 -12.640625 48.3125 -13.019531 50.65625 -13.78125 C 53 -14.550781 55.65625 -15.609375 58.625 -16.953125 C 61.5 -18.484375 63.609375 -19.25 64.953125 -19.25 Z M 40.09375 -59.34375 C 35.207031 -59.34375 31.300781 -57.8125 28.375 -54.75 C 25.457031 -51.6875 23.710938 -47.28125 23.140625 -41.53125 L 55.609375 -41.53125 C 55.421875 -47.375 53.984375 -51.800781 51.296875 -54.8125 C 48.617188 -57.832031 44.882812 -59.34375 40.09375 -59.34375 Z M 40.09375 -59.34375 "/></g></g></g><g fill="#3fb34f" fill-opacity="1"><g transform="translate(1213.24564, 1527.146955)"><g><path d="M 18.25 0.859375 C 15.664062 0.859375 13.535156 0.117188 11.859375 -1.359375 C 10.179688 -2.847656 9.34375 -4.984375 9.34375 -7.765625 L 9.34375 -93.546875 C 9.34375 -96.328125 10.179688 -98.4375 11.859375 -99.875 C 13.535156 -101.3125 15.664062 -102.03125 18.25 -102.03125 C 20.832031 -102.03125 22.984375 -101.3125 24.703125 -99.875 C 26.429688 -98.4375 27.296875 -96.328125 27.296875 -93.546875 L 27.296875 -7.765625 C 27.296875 -4.984375 26.429688 -2.847656 24.703125 -1.359375 C 22.984375 0.117188 20.832031 0.859375 18.25 0.859375 Z M 18.25 0.859375 "/></g></g></g><g fill="#3fb34f" fill-opacity="1"><g transform="translate(1249.743796, 1527.146955)"><g><path d="M 18.25 0.859375 C 15.664062 0.859375 13.535156 0.117188 11.859375 -1.359375 C 10.179688 -2.847656 9.34375 -4.984375 9.34375 -7.765625 L 9.34375 -93.546875 C 9.34375 -96.328125 10.179688 -98.4375 11.859375 -99.875 C 13.535156 -101.3125 15.664062 -102.03125 18.25 -102.03125 C 20.832031 -102.03125 22.984375 -101.3125 24.703125 -99.875 C 26.429688 -98.4375 27.296875 -96.328125 27.296875 -93.546875 L 27.296875 -7.765625 C 27.296875 -4.984375 26.429688 -2.847656 24.703125 -1.359375 C 22.984375 0.117188 20.832031 0.859375 18.25 0.859375 Z M 18.25 0.859375 "/></g></g></g><g fill="#3fb34f" fill-opacity="1"><g transform="translate(1286.241952, 1527.146955)"><g><path d="M 18.25 0.859375 C 15.664062 0.859375 13.535156 0.117188 11.859375 -1.359375 C 10.179688 -2.847656 9.34375 -4.984375 9.34375 -7.765625 L 9.34375 -63.234375 C 9.34375 -66.003906 10.179688 -68.109375 11.859375 -69.546875 C 13.535156 -70.984375 15.664062 -71.703125 18.25 -71.703125 C 20.832031 -71.703125 22.984375 -70.984375 24.703125 -69.546875 C 26.429688 -68.109375 27.296875 -66.003906 27.296875 -63.234375 L 27.296875 -7.765625 C 27.296875 -4.984375 26.429688 -2.847656 24.703125 -1.359375 C 22.984375 0.117188 20.832031 0.859375 18.25 0.859375 Z M 18.25 -84.5 C 15 -84.5 12.414062 -85.382812 10.5 -87.15625 C 8.582031 -88.925781 7.625 -91.25 7.625 -94.125 C 7.625 -97 8.582031 -99.296875 10.5 -101.015625 C 12.414062 -102.742188 15 -103.609375 18.25 -103.609375 C 21.414062 -103.609375 23.976562 -102.742188 25.9375 -101.015625 C 27.90625 -99.296875 28.890625 -97 28.890625 -94.125 C 28.890625 -91.25 27.929688 -88.925781 26.015625 -87.15625 C 24.097656 -85.382812 21.507812 -84.5 18.25 -84.5 Z M 18.25 -84.5 "/></g></g></g><g fill="#3fb34f" fill-opacity="1"><g transform="translate(1322.740108, 1527.146955)"><g><path d="M 45.84375 -12.5 C 50.632812 -12.21875 53.03125 -10.0625 53.03125 -6.03125 C 53.03125 -3.738281 52.09375 -1.992188 50.21875 -0.796875 C 48.351562 0.398438 45.695312 0.90625 42.25 0.71875 L 38.375 0.4375 C 22.28125 -0.71875 14.234375 -9.34375 14.234375 -25.4375 L 14.234375 -56.765625 L 7.046875 -56.765625 C 4.453125 -56.765625 2.460938 -57.335938 1.078125 -58.484375 C -0.304688 -59.640625 -1 -61.316406 -1 -63.515625 C -1 -65.722656 -0.304688 -67.398438 1.078125 -68.546875 C 2.460938 -69.691406 4.453125 -70.265625 7.046875 -70.265625 L 14.234375 -70.265625 L 14.234375 -83.484375 C 14.234375 -86.078125 15.046875 -88.140625 16.671875 -89.671875 C 18.296875 -91.203125 20.5 -91.96875 23.28125 -91.96875 C 25.957031 -91.96875 28.109375 -91.203125 29.734375 -89.671875 C 31.367188 -88.140625 32.1875 -86.078125 32.1875 -83.484375 L 32.1875 -70.265625 L 44.40625 -70.265625 C 46.988281 -70.265625 48.972656 -69.691406 50.359375 -68.546875 C 51.753906 -67.398438 52.453125 -65.722656 52.453125 -63.515625 C 52.453125 -61.316406 51.753906 -59.640625 50.359375 -58.484375 C 48.972656 -57.335938 46.988281 -56.765625 44.40625 -56.765625 L 32.1875 -56.765625 L 32.1875 -24.140625 C 32.1875 -17.054688 35.445312 -13.273438 41.96875 -12.796875 Z M 45.84375 -12.5 "/></g></g></g><g fill="#3fb34f" fill-opacity="1"><g transform="translate(1375.763045, 1527.146955)"><g><path d="M 64.953125 -19.25 C 66.578125 -19.25 67.894531 -18.625 68.90625 -17.375 C 69.914062 -16.132812 70.421875 -14.460938 70.421875 -12.359375 C 70.421875 -9.390625 68.644531 -6.898438 65.09375 -4.890625 C 61.84375 -3.066406 58.15625 -1.601562 54.03125 -0.5 C 49.914062 0.601562 45.988281 1.15625 42.25 1.15625 C 30.945312 1.15625 21.988281 -2.097656 15.375 -8.609375 C 8.757812 -15.128906 5.453125 -24.039062 5.453125 -35.34375 C 5.453125 -42.53125 6.890625 -48.898438 9.765625 -54.453125 C 12.640625 -60.015625 16.6875 -64.328125 21.90625 -67.390625 C 27.132812 -70.460938 33.050781 -72 39.65625 -72 C 45.976562 -72 51.488281 -70.609375 56.1875 -67.828125 C 60.882812 -65.046875 64.523438 -61.113281 67.109375 -56.03125 C 69.691406 -50.957031 70.984375 -44.972656 70.984375 -38.078125 C 70.984375 -33.960938 69.164062 -31.90625 65.53125 -31.90625 L 23.140625 -31.90625 C 23.710938 -25.289062 25.578125 -20.425781 28.734375 -17.3125 C 31.898438 -14.195312 36.5 -12.640625 42.53125 -12.640625 C 45.601562 -12.640625 48.3125 -13.019531 50.65625 -13.78125 C 53 -14.550781 55.65625 -15.609375 58.625 -16.953125 C 61.5 -18.484375 63.609375 -19.25 64.953125 -19.25 Z M 40.09375 -59.34375 C 35.207031 -59.34375 31.300781 -57.8125 28.375 -54.75 C 25.457031 -51.6875 23.710938 -47.28125 23.140625 -41.53125 L 55.609375 -41.53125 C 55.421875 -47.375 53.984375 -51.800781 51.296875 -54.8125 C 48.617188 -57.832031 44.882812 -59.34375 40.09375 -59.34375 Z M 40.09375 -59.34375 "/></g></g></g></svg>