<!DOCTYPE svg PUBLIC "-//W3C//DTD SVG 1.1//EN" "http://www.w3.org/Graphics/SVG/1.1/DTD/svg11.dtd">
<svg fill="#b23c06" height="800px" width="800px" version="1.1" id="Layer_1" xmlns="http://www.w3.org/2000/svg" xmlns:xlink="http://www.w3.org/1999/xlink" viewBox="0 0 512.00 512.00" xml:space="preserve" stroke="#b23c06" stroke-width="0.0051200099999999995" transform="rotate(0)">

<g id="SVGRepo_bgCarrier" stroke-width="0"/>

<g id="SVGRepo_tracerCarrier" stroke-linecap="round" stroke-linejoin="round" stroke="#CCCCCC" stroke-width="3.0720059999999996"/>

<g id="SVGRepo_iconCarrier"> <g> <g> <path d="M478.7,269.23h-18.446v-41.934c7.484,1.213,15.08,1.837,22.714,1.837c16.01,0,29.034-13.025,29.034-29.035 c0-16.009-13.025-29.034-29.034-29.034c-46.394,0-84.139-37.745-84.139-84.139c0-16.01-13.025-29.035-29.034-29.035 c-0.104,0-0.206,0.001-0.309,0.004c-0.103-0.003-0.206-0.004-0.309-0.004c-16.01,0-29.034,13.025-29.034,29.035 c0,46.394-37.745,84.139-84.139,84.139c-46.394,0-84.139-37.745-84.139-84.139c0-16.01-13.025-29.035-29.034-29.035 c-0.103,0-0.206,0.001-0.308,0.004c-0.103-0.003-0.206-0.004-0.31-0.004c-16.01,0-29.034,13.025-29.034,29.035 c0,46.394-37.745,84.139-84.139,84.139C13.025,171.065,0,184.09,0,200.098c0,16.01,13.025,29.035,29.034,29.035 c7.634,0,15.229-0.624,22.714-1.837v41.934H33.3c-18.362,0-33.3,14.938-33.3,33.3c0,18.362,14.939,33.299,33.3,33.299h75.738 v98.225c0,11.059,8.997,20.056,20.056,20.056h26.49c11.059,0,20.056-8.997,20.056-20.056V335.83H336.36v98.225 c0,11.059,8.997,20.056,20.056,20.056h26.49c11.059,0,20.056-8.997,20.056-20.056V335.83H478.7c18.362,0,33.3-14.938,33.3-33.299 C512,284.168,497.061,269.23,478.7,269.23z M29.035,208.735c-4.763,0-8.637-3.875-8.637-8.637s3.874-8.636,8.636-8.636 c57.643,0,104.538-46.895,104.538-104.538c0-4.689,3.755-8.517,8.415-8.634c0.111,0.005,0.948,0.005,1.059,0 c4.661,0.116,8.415,3.945,8.415,8.634c0,57.643,46.895,104.538,104.538,104.538c57.643,0,104.538-46.895,104.538-104.538 c0-4.689,3.755-8.516,8.415-8.634c0.111,0.005,0.948,0.005,1.059,0c4.661,0.116,8.416,3.945,8.416,8.634 c0,57.643,46.895,104.538,104.538,104.538c4.762,0,8.636,3.874,8.636,8.636c0,4.762-3.874,8.637-8.636,8.637 c-42.664,0-82.791-22.863-104.721-59.665c-1.839-3.086-5.168-4.978-8.761-4.978s-6.922,1.891-8.761,4.978 c-21.929,36.803-62.056,59.665-104.721,59.665c-42.665,0-82.791-22.863-104.721-59.665c-1.839-3.086-5.168-4.978-8.761-4.978 c-3.593,0-6.922,1.891-8.761,4.978C111.826,185.872,71.699,208.735,29.035,208.735z M439.855,222.415v46.815h-0.001h-59.995 v-84.489c9.332,9.832,20.04,18.345,31.804,25.19C420.596,215.129,430.06,219.296,439.855,222.415z M306.396,219.892 c7.211-2.736,14.207-6.062,20.907-9.961c11.912-6.931,22.743-15.573,32.158-25.563v84.862h-53.064L306.396,219.892 L306.396,219.892z M285.998,225.909v43.32h-59.995v-43.32c9.817,2.121,19.872,3.224,29.997,3.224S276.18,228.031,285.998,225.909z M142.34,229.483c-5.633,0-10.199,4.567-10.199,10.199v29.548H72.146v-46.815c9.794-3.119,19.258-7.286,28.192-12.484 c16.4-9.542,30.765-22.314,42.18-37.406c11.415,15.092,25.781,27.862,42.18,37.406c6.7,3.898,13.695,7.224,20.907,9.961v49.339 h-53.065v-29.548C152.539,234.05,147.973,229.483,142.34,229.483z M155.243,433.713h-0.001h-25.804V335.83h25.805V433.713z M382.563,433.713h-0.001h-25.804V335.83h25.805V433.713z M478.7,315.433H33.3c-7.115,0-12.902-5.788-12.902-12.901 c0-7.115,5.788-12.902,12.902-12.902H478.7c7.115,0,12.902,5.788,12.902,12.902S485.814,315.433,478.7,315.433z"/> </g> </g> <g> <g> <path d="M142.34,195.826c-5.633,0-10.199,4.567-10.199,10.199v4.08c0,5.632,4.566,10.199,10.199,10.199 s10.199-4.567,10.199-10.199v-4.08C152.539,200.393,147.973,195.826,142.34,195.826z"/> </g> </g> </g>

</svg>