<svg width="2590" height="330" viewBox="0 0 2590 330" fill="none" xmlns="http://www.w3.org/2000/svg">
<path d="M571.082 71L489.366 112L432.114 315H2082.55V245.5V170L2012.81 141H1916L1828.56 199L1713.53 170L1638.06 112H1523.04L1453.81 141L1341.91 112L1154.54 141L1018.17 112L948.95 88.5L891.176 141H773.548L676.739 71H571.082Z" fill="#FAFAFA"/>
<path d="M414.938 0L333.223 41L275.97 244H1926.41V174.5V99L1856.67 70H1759.86L1672.42 128L1557.39 99L1481.92 41H1366.89L1297.67 70L1185.77 41L998.395 70L862.029 41L792.806 17.5L735.033 70H617.404L520.595 0H414.938Z" fill="#FAFAFA"/>
<path d="M186.968 53L105.253 94L48 297H1698.44V227.5V152L1628.7 123H1531.89L1444.45 181L1329.42 152L1253.95 94H1138.92L1069.7 123L957.798 94L770.425 123L634.06 94L564.836 70.5L507.063 123H389.434L292.625 53H186.968Z" fill="#F0F0F0"/>
<path d="M1078.03 76L996.313 117L900 330H2580.5L2589.5 250.5V175L2519.76 146H2422.95L2335.51 204L2220.48 175L2145.01 117H2029.98L1960.76 146L1848.86 117L1661.49 146L1525.12 117L1455.9 93.5L1398.12 146H1280.49L1183.69 76H1078.03Z" fill="#FAFAFA"/>
<path d="M154.255 84L63.5509 125L0 328H1832V258.5V183L1754.58 154H1647.12L1550.06 212L1422.39 183L1338.61 125H1210.93L1134.1 154L1009.88 125L801.897 154L650.53 125L573.692 101.5L509.563 154H378.995L271.536 84H154.255Z" fill="#FAFAFA"/>
</svg>
