<svg
  version="1.1"
  id="Layer_1"
  xmlns="http://www.w3.org/2000/svg"
  xmlns:xlink="http://www.w3.org/1999/xlink"
  viewBox="17 0 2560 1417"
  xml:space="preserve"

>
  <g fill="rgb(106, 121, 142)">
    <path transform="matrix(1,0,0,1,-9.6,-11.6)"
      d="M 2024.2 193.2 C 1821 34.6 1885.4 69.6 1865.4 51.1 c -10.4 6.1 -3.4 19.1 -15.5 28 c -22.8 16.8 -56.9 3.3 -81.7 4.2 c -30.8 1.1 -37.2 -19.6 -48.1 -28 c -1.2 -1 -1.9 -2.4 -2.2 -3.9 c -3.6 -17.7 -10.3 -11.6 -11.7 0.2 c -2.5 21.7 -368.4 590.3 -427.2 630.5 c -0.5 0.3 -1 1 -1.1 1.6 c -0.5 7.7 -119.6 137.1 -120 138.1 c -12.5 31.1 -262.3 242.1 -307.5 239.7 c -3.6 2.4 -14 6.8 -14 6.8 c -1.1 4.1 -17.7 8.9 -19.3 8.5 c -1.1 3.9 -9 3.5 -12.1 5.4 c -119.5 71.4 -309.2 -82.3 -402.9 -269.4 c -26.9 -53.7 6.2 3.7 -46.6 -9.2 c 4.1 -4.4 0.1 -9.9 -2.4 -8.6 c -10.3 5.2 -2.5 8.6 -8.6 8.9 c -25 1.4 -26.6 -11.1 -28 -13.5 c -0.8 -1.4 -4.2 -1.3 -4.5 0.1 c -0.5 3.3 -2.9 5.3 -4.2 8.1 c -2.6 5.7 2 7.7 -3 19.8 c -3.9 9.5 0.9 6.5 2.4 7.4 c 0 2.5 -5 141.2 -6.1 142.2 c -6.6 6.4 1.3 234.1 -13.2 235.9 c -8.6 1.1 -3.2 8.9 -6.9 10.1 c -8.9 2.9 -5.4 -0.7 -7.5 -1.2 c -0.4 2.2 0.1 3.8 -4.4 4.6 c -24.1 4.2 -30.6 14 -34.1 5.5 c -13.1 9.3 16.4 -0.7 -60 23.2 c -25.7 8 -15.6 -2.8 -16.8 -5.8 c -2.4 -1.1 -5.6 -0.9 -6.4 -4.4 c -0.8 -3.2 -7.1 1.2 -14.3 -2.3 c -0.5 -0.3 -1.3 -0.2 -1.9 0 c -4.2 1.1 -7.4 -1 -11 -2.9 c -3.5 -1.9 -8.3 -1.3 -10.8 -5.3 c -0.4 -0.7 -1.3 -0.9 -1.6 -0.4 c -3.6 6.1 -10.5 -8.3 -15.7 -5 c -2.8 1.7 -5.3 2.5 -8.4 1.1 c -2.3 -1.1 -2.9 3 -6 0.3 c -3 -2.6 -6.6 -3.1 -10.2 -3.9 c -13.4 -2.9 -16.7 -6.9 -23.4 -5 c -3.2 0.9 -6.4 3.4 -9.9 0.8 c -0.1 -0.1 -0.5 -0.1 -0.6 0.1 c -6.5 6.1 -4.5 1.3 -8.3 2.4 c -2.4 0.7 -4.5 5.3 -12.3 2.7 c -4.3 -1.4 -3.7 3.5 -3.7 8.3 c 0 212.9 -3.7 189.9 8.9 189.9 c 2677.5 0 2541.2 0.1 2551.1 -0.3 V 540.6 C 2573.6 540.6 2271.9 386.6 2024.2 193.2 z M 291 1298.5 c -7.1 3.6 -12.8 -0.1 -18.6 -3 c -3.7 -1.8 4.1 -6.4 -8 -8.2 c -3.7 -0.6 -0.8 3.2 -3.1 3.7 c -11.2 2.4 -10.3 -11.8 -22.2 -14.7 c 0.5 -2.7 -0.9 -1.7 33.3 -11.4 c 15.3 -4.4 19.2 -5.8 19.2 -2.3 C 291.7 1268.5 291.4 1296 291 1298.5 z M 377 832.2 c -0.5 4.9 -11.1 36.7 -14.7 43.8 c -8.7 -15.4 -17 -30 -25.1 -44.3 C 338.5 829.4 375.4 831.8 377 832.2 z M 373.2 861.2 c 0 4.7 0.3 1.6 -0.9 22.5 C 371.9 890 359.4 884.3 373.2 861.2 z M 368.6 946.9 c 0.1 0 0.2 0 0.2 0 c 0.6 -26.9 0.4 -22.9 1.1 -27.5 c 0.1 -0.8 1.8 -0.9 1.9 0.1 C 373.6 933.1 366.7 1015.4 368.6 946.9 z M 341.2 1197.1 c -3.2 0.7 -2.3 0.8 -2.3 -37.6 c 0.2 0 0.4 0 0.6 0 c 0.8 -38.1 0.7 -36.5 1 -38.1 c 0.3 -1.7 3.4 -2 3.6 0.2 c 0.2 1.4 0.2 -2.9 -0.2 70.3 C 343.9 1194.1 344.2 1196.4 341.2 1197.1 z M 325.8 1078.3 c 0 0 0 -10.8 0 -33.5 c 0.2 0 0.4 -35.6 4.2 -35.5 c 2.5 0.1 2.4 1.6 2.3 6.4 c 0 1 -1.2 59.3 -1.4 62.4 C 330.7 1081.4 325.8 1081.3 325.8 1078.3 z M 329 1159.6 c -0.1 0 -0.1 0 -0.2 0 c -1 41.3 -0.1 41.4 -4.7 41.9 c -2.2 0.3 -2.2 -1.3 -2 -5.8 c 3.4 -90.4 1.9 -60.7 5.3 -74.8 c 0.2 -0.6 2.3 -0.9 2.4 0.7 C 330.1 1125 330 1124 329 1159.6 z M 331 1159.6 c 0.1 0 0.1 0 0.2 0 c 2.8 -86.6 7.2 -12.3 3.8 36.6 c -0.3 3.7 -4.9 5 -4.7 0.1 C 331.2 1165.8 331 1180.6 331 1159.6 z M 333 1080.3 c -0.3 -2.1 -0.3 -1.1 0.5 -34.8 c 0.1 0 0.2 -21 0.3 -31.6 c 0 -8.9 4.8 -5.5 5 -4.5 c 0.6 2.7 -1 69.5 -1.3 70.9 C 337.2 1082.3 333.3 1082.2 333 1080.3 z M 336 956 c 0 -0.8 0 -1.5 0.1 -2.2 v -4.3 h 0.1 c 1 -36.5 0.2 -34.5 4 -34.7 c 4.3 -0.2 0 56.5 0 56.5 h -0.3 c -0.3 1.5 -1.1 2.5 -2.6 2.4 c -2.2 -0.3 -2.2 -1.4 -1.2 -4.2 v -13.5 C 336.1 955.9 336 956 336 956 z M 340.1 885.5 c -2.4 -0.3 -2.4 -1.6 -2.4 -4.5 c -0.1 -41.2 -0.2 -34.8 0.4 -38.3 c 4.4 5.3 6.5 10.2 6 16.4 C 342.5 882.2 345.8 886.1 340.1 885.5 z M 341.5 1080.2 c -0.1 -1.4 -0.1 0.4 -0.1 -35.4 c 0.2 0 1.2 -21.4 1.5 -32.2 c 0.2 -7.1 3.8 -4.4 3.9 -3 c 0.3 2.7 -1.1 68.9 -1.5 70.9 C 345 1082.1 341.7 1082.4 341.5 1080.2 z M 345.4 973.8 c -2.2 0 -2.2 -1.4 -2.1 -4.5 c 0.7 -21.4 3.1 -53.3 3.1 -53.3 h 2.7 V 943.1 C 349.1 943.1 348.4 973.8 345.4 973.8 z M 347 857.5 c 5.5 8.2 4.9 10.1 3.8 26.3 C 350.7 885.4 342.1 895.7 347 857.5 z M 347.4 1157 c 0.8 -37.5 0.3 -36.6 2.1 -36.7 c 5.5 -0.3 -2.7 141.8 -2.7 36.7 C 347.1 1157 347.3 1157 347.4 1157 z M 349.9 1082.1 v -0.9 h -0.4 v -2 c -0.1 4.2 -0.2 3.1 0 -7.3 v -13.1 h 0.2 c 0 -2.8 0.1 -6 0.2 -9.4 v -41.5 h 2.5 V 1082.1 H 349.9 z M 351.8 971.1 c 1.4 -57.2 1 -48 2.3 -54.2 c 0.2 -1 1.8 -0.4 1.9 0.3 c 0.3 3.3 -0.2 27.5 -0.2 27.5 c 0 28 0.5 29 -2 29.2 C 352 973.9 351.7 972.4 351.8 971.1 z M 354.6 885.8 c -1.3 -0.9 -1 -1 -1 -15.8 c 0.5 -0.1 1 -0.2 1.5 -0.3 c 2.2 3.2 4.5 6.3 6.7 9.5 C 363.9 882.6 359.1 888.8 354.6 885.8 z M 355.7 1054.2 v 28.4 h -0.9 v -34.4 c 0 0 1.3 -36.1 2.3 -39.3 C 357.8 1024.1 356.3 1039.2 355.7 1054.2 z M 355.2 1156.6 c 0.9 -38.2 0.3 -36.2 2.4 -36.6 c 5.4 -1 -2.8 136.5 -2.8 36.6 C 354.9 1156.6 355.1 1156.6 355.2 1156.6 z M 358.1 1080.3 c -0.1 -1.6 0.5 -35.5 0.5 -35.5 c 0 -91.3 6.1 12.4 2.2 35.3 C 360.5 1082.8 358.2 1081.6 358.1 1080.3 z M 361.6 974.2 v -57 h 2.1 v 57 H 361.6 z M 366 1126.3 c 1.2 1.5 0.8 3.3 0.7 4.9 C 364.2 1264.7 361.8 1129.2 366 1126.3 z M 336.5 843.3 c -1.7 42.1 0.1 41.7 -3.4 42 c -4.1 0.4 -3.2 -1.3 -3.2 -28 h -0.4 c 0 -6.8 0 -13.5 0 -20.3 C 329.5 821.9 336.8 835.9 336.5 843.3 z M 328.7 941.6 h 0.1 c -0.1 -24 -1 -27.1 4.4 -26 c 3 0.6 0.7 48.1 -1.1 54.8 c -0.7 2.5 -3.8 3.1 -3.8 -0.3 c 0 -8.8 0.1 -8.3 0.1 -25.5 h 0.3 V 941.6 z M 321.5 877.1 c 0.5 -34.4 -0.7 -48.4 6.1 -46 c 2.7 1 -0.7 50.9 -0.9 52 C 321.5 881.5 321.4 881.5 321.5 877.1 z M 320 950 c -0.1 -25 7.2 -41.6 6.9 -29.4 c -1.3 55.1 -1.1 48.8 -1.6 50.7 c -6.6 -1.6 -6.1 -8.1 -3.8 -14.5 C 322.3 954.4 320 952.5 320 950 z M 324.3 1020.5 c -1.3 47 -1 41 -1.6 43.2 c -0.3 1.1 -1.9 0.4 -1.9 -0.1 c -0.5 -3 -0.4 -2.5 -0.2 -19 C 321.1 1018.4 322.5 1029.6 324.3 1020.5 z M 321.5 1069.8 c 2.2 0.8 2.1 10 -0.5 9.1 c -2.3 -0.8 -1.1 -2.9 -1.5 -4.3 C 319.6 1070.9 320.3 1069.3 321.5 1069.8 z M 319.8 1157.9 c -0.2 37.8 0.3 35.7 -1.8 35.9 C 316.1 1194 317 1158.6 319.8 1157.9 z M 318.6 1303.6 c -0.7 1.6 -5 2.6 -4.4 -1 C 314.9 1297.8 319.1 1302.5 318.6 1303.6 z M 315.8 1261.1 c 0.3 -13.6 5.1 -6.3 16.1 -11.9 c 1.1 -0.6 2.9 0.8 2.7 2 c -1.7 8 1.1 4.2 -15 20.7 C 313.5 1278.1 315.6 1268.4 315.8 1261.1 z M 339.1 1264 c 4.9 -4.9 4.6 -1.5 18.1 12.8 c 7.6 8 -2.7 6.2 -14.9 6.2 c 0 0 0 0 0 0 C 319.4 1283.1 317.3 1285.8 339.1 1264 z M 325.5 1292.2 c 1.9 -0.3 3.8 -1.5 5.6 -0.4 c 2 0.6 3.6 -0.4 5.3 -0.6 c 7.2 -0.6 14.3 1 21.5 1 c 6.7 0 -5.1 9.3 -8.9 14.6 C 339.7 1319.8 319.2 1293.1 325.5 1292.2 z M 362.5 1313.7 c -1.7 0 -3.4 -0.3 -5.1 -0.5 c -4.2 -0.6 6.8 -10.7 8.5 -11.9 c 2.5 -1.8 1.9 3.1 1.9 6 c 0.1 0 0.1 0 0.2 0 C 368 1319.1 365 1313.8 362.5 1313.7 z M 365.7 1272.6 c -13.9 -15.6 -14.3 -15.2 -14 -19.1 c 0.7 -9.3 12.8 -13.1 13.1 -11.4 c 0.6 3.2 4.6 4.6 4.5 8.2 c -0.1 2.8 0 5.7 0 8.5 c 0.1 0 0.1 0 0.2 0 C 368.8 1269.6 369.2 1276.6 365.7 1272.6 z M 369.2 1173.5 c -1.5 -5.3 -0.9 -24 0.9 -28.1 C 371.3 1151.7 370.7 1169.6 369.2 1173.5 z M 371.3 1064.4 c -1.5 -9.2 -0.7 -38.1 1.6 -44.3 C 372.9 1066.5 373.5 1063.4 371.3 1064.4 z M 373.6 972 c -2 -1.1 -0.4 0.7 -0.3 -47.9 C 373.3 896.7 378.8 974.8 373.6 972 z M 377.6 955.2 v -26.1 C 381 929.3 378.3 952.9 377.6 955.2 z M 381 860.4 h -0.3 c 0 22.5 0.8 23.4 -2.2 24.6 c -2.8 1.1 -4.2 0.3 -4.2 -2.6 c -0.1 -30.5 -0.4 -26.3 4.6 -44 C 381.6 829 381 859.4 381 860.4 z M 1638.1 189 c 0.1 -14.2 30 -57 32.2 -58 c 1.2 41.6 -1.1 117.8 0.7 126 c -1.5 4.2 0 74.5 -1.6 88.1 c -1.4 12.4 -25.9 38.9 -29.2 46.7 C 1637.1 399.7 1638.1 190 1638.1 189 z M 1661.1 942.7 c 0.8 -5.2 15.9 -1.4 6.7 7.6 c -0.7 0.7 -0.8 2.4 -2.1 2 c -1.6 -0.5 -1.3 -1.9 -0.9 -3.2 C 1666 944.9 1660.2 948.2 1661.1 942.7 z M 1648.1 410.5 c 0 -8.5 -1 -29 22 -48.4 c 0 252.4 1.1 573.5 -3.7 573.6 C 1645 936.2 1649.3 1186.8 1648.1 410.5 z M 1643.1 398 c 3.3 -3.5 1.9 -9.2 1.9 289 l -0.1 0 c 0 290.3 4 293.6 -5.4 289.2 c -3 -1.4 -1.6 2.3 -2 -546.8 C 1637.6 409 1636.4 405.2 1643.1 398 z M 1610.2 223.9 c 41.9 -66.4 17.9 -53.7 24.8 170.5 c 0.3 9 -27.2 41.5 -30 44.8 c -0.4 -3.5 -2.1 -5.7 -0.6 -8.4 C 1604.3 430.7 1598.9 241.8 1610.2 223.9 z M 1620.4 961.1 c 0 0 -5.2 132.3 -4.3 -288.5 c 0.6 -261.8 -5.1 -229.5 13.2 -255.3 c 8.8 -12.4 4.9 -0.1 4.5 72.9 c -2.8 501.3 9.4 485.8 -7.3 487.6 c -5.5 0.6 -3.6 -13.1 -2.5 -15.4 C 1625.8 958.3 1619.5 958.7 1620.4 961.1 z M 1611 443.1 c 5.1 5.4 -1.3 69.7 2 83.6 c -3.1 26.6 3.4 452.3 -2.4 453 c -7.3 0.8 -7.4 2 -7.3 -6.1 C 1605 403.9 1600.7 456.7 1611 443.1 z M 1570.4 345 c -0.1 -51 -1.4 -56.7 6.3 -68.3 c 30.4 -45.8 23.9 -58.2 23.9 51.1 h -0.1 c 0 79.3 1 118.7 -3.6 123.6 C 1564.1 486.7 1570.7 532.1 1570.4 345 z M 1586.7 966.3 c -3 -0.4 -2.4 15.3 -2.4 -241.4 c 0.1 0 0.2 0 0.3 0 c 0 -224.2 -5 -256.2 13.8 -263.4 c 3.4 3.2 2.7 607.6 -3 514.3 C 1595.1 968.6 1594 967.4 1586.7 966.3 z M 1593.7 978 c -0.1 3.7 -0.2 3.7 -4 4.3 c -1.5 0.2 -3 0.9 -4.8 0.2 c -1 -3.9 -0.4 -8 -0.4 -11.8 C 1586.2 969.1 1594 967.8 1593.7 978 z M 1579.3 485.8 c 3.4 -4.1 1.7 491.7 1.7 492.7 c -0.3 4.9 -1 4 -5.4 4.5 c -7.3 0.9 -5.5 29.2 -5.5 -336.4 c 0 0 0 0 0 0 C 1570 476.3 1567.3 500.2 1579.3 485.8 z M 1558.4 969.2 c 0 -13.3 -1 -15.2 4.1 -15.7 c 6.1 -0.6 5.1 0 4.9 27 c 0 3.2 0.4 4.2 -5.9 4.9 c -3.6 0.4 -2.8 -0.8 -2.8 -16.3 C 1558.6 969.2 1558.5 969.2 1558.4 969.2 z M 1553.3 819.5 c 0 -324.9 -3.7 -297.9 10.4 -312.8 c 6.5 -6.9 1.5 305 3.4 314.3 c -0.6 2.2 -0.7 97 -0.6 98 c 4.1 64.2 -10.3 -0.6 -10.6 57.5 c 0 4.2 0.1 6.7 -0.9 6.7 c -2.5 0 -1.6 5.4 -1.6 -163.7 H 1553.3 z M 1538.3 346.4 c -0.4 -13.4 4.3 -17.7 21 -42.5 c 6.3 -9.3 6.2 -9.7 7.6 -9.2 c 1 0.4 0.7 137.1 -0.5 144.9 c 1.5 6.8 1.2 50.4 -1.4 54.6 c -9.6 15.6 -17 18 -17.4 23.5 c -0.1 1 -7.7 10.6 -9.5 10.8 C 1538 528.1 1538.4 349.8 1538.3 346.4 z M 1538 547.1 c -1.4 -7.6 -1.4 -7.8 10.4 -21.8 c 4.1 -4.9 2.3 -2.5 2.3 230.6 c -0.1 0 -0.2 0 -0.3 0 c 0 253.7 4.3 230.5 -7.3 231.5 C 1532 988.4 1539.6 555.6 1538 547.1 z M 1512.3 374.1 c 18.7 -27.4 18.5 -29.4 21.9 -31 c 3.2 7.1 -0.4 7.1 0 147.4 c 0.1 40.2 2.5 41.8 -2.1 46.8 c -31 33 -26.5 75 -25 -92.2 C 1507.6 387.5 1504.5 385.5 1512.3 374.1 z M 1533.2 545.9 c 2.2 0.7 1.3 440.6 0.7 441.9 c -13.7 3.8 -9.9 15.4 -10 -123.6 C 1523.9 632.2 1519.9 541.8 1533.2 545.9 z M 1519.5 563.4 c 1 0.6 5 424.2 -2.5 426.3 c -4.1 1.1 -10.6 2.8 -10.6 -1.4 C 1503.8 556.7 1504.6 575.6 1519.5 563.4 z M 1503.1 390.7 c 0 212.9 7.6 174 -22.5 211.3 c -6.9 8.5 -4.5 1.6 -4.9 -122.5 C 1475.5 432.6 1472.6 424.2 1503.1 390.7 z M 1494.2 985.8 c 0.7 -10.8 12.1 0 7.4 5.4 c 0 0 0 0 -0.1 0 C 1495.6 995.6 1493.7 993.3 1494.2 985.8 z M 1502.5 978.3 c -2.8 -0.4 -4.7 -0.7 -6.8 -1 C 1489.6 959 1502.5 101.9 1502.5 978.3 z M 1490.4 600.3 c 1.9 2.3 2.4 393.2 -2 393.2 c -9.3 0 -13.2 6.9 -13.2 -4.6 C 1475.2 604.7 1471.4 612.9 1490.4 600.3 z M 1453 460.4 c 11.7 -14.8 15 -24.4 19.6 -26.2 c 0.5 3.1 1.1 178.2 -5.4 184.1 c -25.3 23.1 -21.7 70.3 -21.2 -117.5 C 1446.1 477.4 1445.1 470.3 1453 460.4 z M 1471.7 624 c 1.3 1.8 1 335 1 338.7 c -9 -0.5 -6.6 5.6 -6.6 -51.2 C 1465.9 596.4 1463.3 625.5 1471.7 624 z M 1470.3 966.1 c 2.8 -0.1 2.2 1 2.2 15.6 c 0 0 0.1 0 0.1 0 c 0 7.8 1.3 16.9 -5.6 14.8 c -1.3 -0.4 -1.3 -0.8 -1.4 -11.9 C 1465.6 967.5 1464.9 966.3 1470.3 966.1 z M 1460.1 636.9 c 4.2 -4.5 3.8 -2.5 3.5 81.7 c -1.1 294.8 1.1 277.2 -5 278.3 c -16.5 2.9 -13.3 26.3 -13.3 -171.4 c 0 0 0.1 0 0.1 0 C 1445.4 627.6 1440.3 658.4 1460.1 636.9 z M 1416.4 648.8 c 0 -62.6 2.3 -66.1 0.1 -74.3 c 3.3 -76.6 -6.3 -54.5 19 -89.1 c 3.5 -4.8 4.1 -7.5 6.3 -6.9 c 1 0.3 3.5 168 -2.7 174.1 c -22.8 22.4 -22.8 41.6 -22.8 -3.9 H 1416.4 z M 1438.3 849 h 0 C 1438.3 517.6 1438.3 694.3 1438.3 849 z M 1421.7 681 c 19.8 -20.8 13.7 -40.4 13.7 146.3 c 0 0 0 0 0 0 c 0 0.8 0 168.1 0 168.1 c 0.2 2.9 0.3 5.5 -9.4 6.3 c -5.4 0.4 -5.5 0.4 -6.1 -5.2 c -4.9 -40.2 -4 45.5 -4 -69.9 C 1415.9 674.9 1413.5 689.7 1421.7 681 z M 1388.8 571.1 c -0.1 -19.9 -3.7 -20.2 24.1 -53.1 c 1.5 6.3 2.7 164.1 -2.4 168.3 C 1380.6 711 1389.4 754 1388.8 571.1 z M 1387.4 966.2 c 0 -9 -0.1 -18 0 -27 c 0.9 -73.5 1.2 74.6 1.2 -121.5 c 0 -98.8 -1.9 -96 4.4 -102.6 c 22.8 -23.6 15.5 -54.4 15.5 208 c 0 93.2 2.7 79.7 -8.2 82 c -16.4 3.5 -12.8 5.1 -12.8 -38.9 C 1387.4 966.2 1387.4 966.2 1387.4 966.2 z M 1361.1 661.9 c 3.9 -86.2 -10 -60.4 19.7 -101.8 c 3.9 -5.4 5 -3.3 4.9 3.3 c -4 165.8 9.9 141.2 -20 173.2 c -1.7 1.8 -2.9 3.3 -4.2 2.4 C 1360.3 738.1 1360.7 670 1361.1 661.9 z M 1360.7 799.6 c -0.7 -44.9 -0.8 -49 6.2 -56 c 21.8 -21.8 15.1 -39.2 15.1 108.4 c -0.1 0 -0.2 0 -0.2 0 c 0 20.8 -0.3 41.6 0.1 62.4 c 0.4 22.5 0.4 57.8 0.4 57.8 c 0.3 5.1 -5.6 1.6 -5.5 8.6 c 0.5 32.4 3 27.8 -14.5 29.6 C 1354.9 1011.2 1363.3 963.6 1360.7 799.6 z M 1379.7 1008.1 c -2.5 0 -2.1 0 -2 -26.4 c 0 -1 1.2 -3.7 3.3 -3.3 c 1.8 0.4 1.4 1.3 1.4 15.1 c 0 0 -0.1 0 -0.1 0 C 1382.3 1007.7 1383 1008.1 1379.7 1008.1 z M 1334.3 633.4 c -0.1 -14.3 4.4 -16.6 20.3 -37.7 c 4.3 -5.7 3.8 1.9 3.8 71.9 c -0.1 0 -0.2 0 -0.3 0 c 0 112.1 -0.4 67.2 -21.3 101.6 C 1330 780.4 1335 718.3 1334.3 633.4 z M 1339.1 773.8 c 15.6 -17 15.7 -16.5 16.8 -15.8 c 0.2 0.1 0.9 245 0.9 245.2 c 0 9 -0.8 8.3 -15.4 9.8 c -1 -2.5 -0.6 -4.5 -0.8 -6.4 c -0.6 -8.9 -7.7 -1.7 -7.6 -9.1 C 1334.4 767.8 1333.1 780.5 1339.1 773.8 z M 1335.1 1004 c 4.3 -0.5 5.9 3.8 4.6 7.8 c -0.8 2.5 -6.8 1.5 -6.4 -3.7 C 1333.5 1006.5 1332.5 1004.3 1335.1 1004 z M 1324.4 634.1 c 1.5 -1.9 2.8 -3.9 5.8 -4.8 c 1.9 12.8 0.6 -23.6 0.7 83.4 c 0 61.6 1.4 60.8 -4.3 66.5 c -17.3 17.6 -16.2 17.2 -18 16.8 c -2.3 -10.5 -1.2 -21.3 -1.3 -32 C 1305.5 639.3 1306.9 657.1 1324.4 634.1 z M 1316.4 797.7 c 9.5 -9.2 9.5 -12.1 14.3 -13.3 c 0 1 0.1 224.7 -0.4 227.8 c -0.4 2.5 -0.7 2.1 -18.9 4.8 c -3.6 0.5 -1.6 -182.7 -1.5 -183.8 C 1310 812.1 1307.9 805.9 1316.4 797.7 z M 1282 698.7 c -0.1 -8.1 2.4 -14.9 7.9 -20.8 c 21.2 -22.6 13.7 -45.5 14.5 118.5 c 0 7.2 -1.9 7.9 -16.9 23 C 1278.9 828.1 1283.3 818.8 1282 698.7 z M 1304.1 960 c 1.2 55.5 -8 0.9 -7.9 51.4 c 0 4.8 0.5 6.9 -2.2 7.4 c -13.8 2.3 -9 15.5 -8.1 -108.4 c 0.6 -91 -5.2 -75.2 15.8 -97.5 c 3.5 -3.7 2.5 4.6 2.5 54.7 c -0.3 0 -0.5 0 -0.8 0 C 1303.5 897.5 1304.1 959 1304.1 960 z M 1303.5 990.2 c 0.9 3.4 0.4 6.9 0.5 10.3 c 0.3 20.1 0.1 15.7 -3.9 16.7 c -1.7 0.4 -2.5 -0.6 -2.4 -2.1 C 1299.2 999.8 1293.6 990.9 1303.5 990.2 z M 1276 695.3 c 1.5 -1.3 3.4 -1.1 3.4 1.5 c 0.1 33.4 -0.7 125.1 -0.6 125.2 c 0.6 4.2 -0.6 7.5 -3.8 10.4 c -13.7 12.3 -17.9 20.5 -18 10.2 C 1255.9 718 1252.3 716.5 1276 695.3 z M 1278.1 1017.8 c 0 2.7 -0.8 2.2 -9.2 4.2 c -0.7 -5 -0.4 -8.9 -5 -10.5 c -3.6 -1.2 -2.2 5.5 -1.8 -109 c 0.2 -43.8 -1.8 -47.4 3.6 -53.7 C 1285.8 825.5 1276.4 828 1278.1 1017.8 z M 1255.4 964.2 c 0.1 0 0.2 0 0.4 0 c 0 -41.1 1 -104.7 1.2 -105.7 c 6.5 -27 -2.7 156.4 5.3 156.2 c 5.4 -0.1 7 7.7 1.8 8.5 C 1252.6 1024.8 1255.4 1035.4 1255.4 964.2 z M 1232.2 809.6 c 1.5 -72.1 -5.3 -55.8 19.4 -85.1 c 4.1 -4.9 2.6 8.9 2.6 63.7 c -0.1 0 -0.2 0 -0.3 0 c 0 77 3.9 60.8 -17.5 80.4 C 1231.6 873.1 1230.9 872.7 1232.2 809.6 z M 1253.1 943.2 c 0 90.4 2.6 81.8 -7.3 82.6 c -2.3 0.2 -5.1 1.7 -6.9 0 c -1 -0.9 -0.7 -131.9 1.1 -149.1 c 0.4 -3.9 8.9 -13.5 12.3 -13.2 c 0.8 1.3 0.6 -5.3 0.6 79.8 C 1252.9 943.2 1253 943.2 1253.1 943.2 z M 1236.5 1009 c 0.3 16.2 0.4 18.5 -2.9 18.7 c -2.1 0.2 -3 -0.5 -2.9 -2.4 c 0.5 -8.5 -0.9 -17.1 0.8 -25.6 C 1230.7 994.4 1231.7 722.4 1236.5 1009 z M 1208.4 887.7 c 4.2 -127.5 -9.9 -101.6 17.5 -133.2 c 5.5 -6.3 3.9 2.9 3.9 58.7 c -0.2 0 -0.3 0 -0.5 0 c 0 62.1 1.2 62.5 -5.1 67.2 C 1217.3 885.4 1208.1 896.9 1208.4 887.7 z M 1222.7 1001.4 c -1.3 5.7 -9.6 101.2 -6.4 -96.9 c 0.3 -15.3 13.6 -22.3 12.8 -16.6 c -0.9 6.4 0.4 97.2 -0.3 108.9 c -2 1.8 -5.6 1.1 -6.2 4.5 C 1222.6 1001.4 1222.6 1001.4 1222.7 1001.4 z M 1222.8 1001.4 c 1.9 0.6 3.7 -1 5.8 0 c 0.8 1.7 0.6 1.1 0.5 23.3 c 0 3.4 -0.8 4.2 -4.1 4.3 C 1222.3 1029.1 1222.7 1029.7 1222.8 1001.4 z M 1213.6 963.8 c -0.1 0 -0.1 0 -0.2 0 c 0 69.9 1.5 67.2 -4.1 66.5 C 1201.3 1029.4 1213.6 784.1 1213.6 963.8 z M 1185.6 826.4 c -1.4 -23.3 0.4 -27.4 4.3 -31.6 c 15.7 -17.3 13.4 -14.9 15.8 -15.4 c 0 137.4 3.6 115 -17 132.2 C 1179.5 919.1 1187.6 858.9 1185.6 826.4 z M 1193.9 934.6 c 0 -15.5 -1.5 -21.2 9.3 -28 c 2.1 -1.3 2.2 1.4 2.2 15.5 c -0.3 140.1 0.5 108.1 -6.4 102.9 C 1192.8 1013.8 1193.5 1050.1 1193.9 934.6 z M 1198.8 1025.1 c 0 7.8 -4.9 6 -5.2 1.6 C 1193.4 1024.5 1195.3 1025.1 1198.8 1025.1 z M 1184.3 926.1 c 0.1 -5.6 2.1 -6 6.2 -9 c 3.4 3.1 0.4 100 0.9 109.8 c 0.2 3 -3.1 4 -3.2 6.7 c -0.1 1.4 -4.1 0 -4.4 -3.1 C 1183.7 1030.4 1184.3 926.1 1184.3 926.1 z M 1171.5 991.4 c 0 0 0 0.1 0.1 0.1 c 1.7 -7.5 0.3 -45.4 1.3 -55.1 c 0.7 -6.3 1.8 -7.7 9 -11.3 c 3.1 123 0.6 111.8 -9.8 110.1 C 1172 1031.3 1172.3 996.5 1171.5 991.4 z M 1180.9 805.3 c 2.6 3.1 0.1 50.5 1.2 105.1 c 0.2 9.2 -3 9.5 -19.9 23.2 C 1159.9 810.4 1159.8 827.3 1180.9 805.3 z M 1163.6 938.8 c 2 -1.3 3.6 -3.1 5.8 -4.1 c 2.7 4.1 -1 50.5 2 56.6 c -5.3 6 5.7 46.1 -8.7 46.1 C 1160.8 1037.5 1158.7 942.1 1163.6 938.8 z M 1139.9 858.7 c 0 -4.8 -0.3 -10.7 4.3 -15.3 c 23 -22.6 13.3 -32 15.2 88.1 c 0.1 6.9 -1.1 7.8 -18.5 21 C 1138.6 951.1 1140.5 960 1139.9 858.7 z M 1155.3 1038.1 c -2.7 0.4 -1.3 -22.5 -0.8 -24.6 c 0.4 -1.5 3.4 -2.2 3.6 0.3 c 0.2 2.8 0.1 7.2 0.1 11.1 h 0 C 1158.3 1036.8 1159 1037.5 1155.3 1038.1 z M 1152 1011.2 c -1.3 -1.2 -0.7 -2.8 -0.7 -4.2 c 0.3 -57.6 -1.5 -59.9 7.9 -63 C 1159.2 997.3 1160.7 1012.3 1152 1011.2 z M 1138.5 1034.3 c 0.3 -80.9 0.2 -76 2.8 -77.4 c 9.8 -5.3 7.7 -14.5 7.7 39.3 c -0.1 0 -0.2 0 -0.3 0 c 0 47.3 1 43.1 -3.4 43.8 C 1138.5 1041 1138.5 1041 1138.5 1034.3 z M 1117.7 904.3 c 1 -30.6 -0.6 -33.6 4.6 -39 c 22 -22.7 12.9 -25.2 14.5 84.7 c 0.1 3.7 -0.9 6.5 -4.1 8.1 C 1117.9 965.7 1114.7 993.8 1117.7 904.3 z M 1130.7 1028.1 c -0.1 -44.5 -1.5 -68.6 4.8 -64.9 c 2.3 1.3 0.1 68.4 -0.1 69.4 C 1130.8 1031.5 1130.7 1031.5 1130.7 1028.1 z M 1134.1 1040.1 c -1.5 3.3 -5.7 -1.9 -1.7 -4.5 C 1133.3 1036.1 1135.4 1037.1 1134.1 1040.1 z M 1124.3 1042.8 c -10.5 2.1 -6.9 7 -7 -64.9 c 0 -4.1 6.3 -7.7 9.7 -9.4 c 1.7 2.1 1.9 4.2 1.8 6.4 C 1126.6 1003.4 1130.7 1041.6 1124.3 1042.8 z M 1096 977.8 c 1 -98.9 -2.3 -85 16.5 -102.4 c 5.6 -5.2 2.2 22.9 2.2 27.9 c 0.1 71 1.8 69 -4.5 72.2 c -5.9 3 -10.8 9.6 -13.8 8.5 C 1095.6 982.1 1096 979.9 1096 977.8 z M 1114 979.4 c 1.5 0.7 0.5 4.5 0.4 59.3 c 0 3.9 0.1 5.3 -2 5.5 c -2 0.1 -2 -1.6 -1.9 -6.7 C 1110.9 999.1 1108.9 976.9 1114 979.4 z M 1096 1016.3 c -0.4 -28.9 -1.7 -25.2 8.1 -31.3 c 5.4 -3.3 4.1 1 4.1 29.8 c -0.1 0 -0.3 0 -0.4 0 c 0 32.9 1 30 -3.8 31.1 C 1091.6 1048.9 1096.4 1046.2 1096 1016.3 z M 1090.1 896.9 c 4.3 -4.1 3.6 0.3 3.6 43.8 h -0.3 c 0 54.1 4.1 44.5 -15.7 57.7 c -3.2 2.1 -2.8 -3.7 -2.7 -7.5 C 1075.4 899.6 1071.3 914.9 1090.1 896.9 z M 1079.4 1002.3 c 11.4 -5.1 8.7 -16.2 7.3 36.5 c -0.2 7.1 0.8 9.3 -3.1 10.1 c -9.2 2 -8.7 -1.1 -8.7 -24.4 h 0 C 1074.9 1008.2 1073.7 1004.8 1079.4 1002.3 z M 1055.8 931.5 c 0.2 -5.7 2 -6 16.3 -18.3 c 1.3 3 2.4 88 -1.8 90.5 C 1050.8 1015.2 1051.9 1031.6 1055.8 931.5 z M 1067.6 1042.8 c -0.1 0.3 0.2 0.8 0.3 1.2 c 1.4 8.7 0.9 6.9 -6.2 8.6 c -9.5 2.3 -7.5 -3.9 -7.5 -18.1 c 0 0 0.1 0 0.1 0 c 0 -17.6 -2.2 -15.1 9.4 -22.2 c 4.5 -2.8 6.1 -3.1 5.1 13 C 1068.3 1031.1 1070 1037.1 1067.6 1042.8 z M 1050 932.1 c 2.7 -2.3 2.6 2.9 2.6 4.8 c -0.4 83 0.8 76.7 -3.3 80 c -2.7 2.2 -10.5 7.5 -15.1 8.6 C 1033.2 933 1033.1 946.6 1050 932.1 z M 1049.9 1050.7 c 0 2.1 -1.1 3.4 -3 3.7 c -10.8 2.1 -12.9 2.3 -12.8 -0.7 c 0.1 -18.3 -0.8 -23.4 6.4 -27 C 1052.1 1021.1 1049.6 1016.4 1049.9 1050.7 z M 1029.8 949.4 c 6.6 -5 0.4 27.5 2.4 74.8 c 0.2 5.1 -11.3 10.7 -17.9 13.7 C 1014.9 953.5 1010.5 964.1 1029.8 949.4 z M 1029.4 1033.5 c 6.2 -2.1 -1.9 46.7 -1.9 12.1 h 0 C 1027.5 1035.4 1027.1 1034.3 1029.4 1033.5 z M 1015.9 1051.4 c -5.3 -8.9 9.9 -18.1 10 -11.7 c 0.2 16.8 0.8 17.9 -3.4 18.1 C 1017.3 1058.2 1022.7 1054.4 1015.9 1051.4 z M 1017.4 1056.7 c 0.2 1.3 -1.5 1.5 -1.9 0.5 C 1015.1 1056 1017.1 1054.7 1017.4 1056.7 z M 1001.8 972 c 6.2 -4 8.7 -8.9 10.5 -3.7 c 0.8 2.3 1 4.8 0.6 7.1 c -3 17.6 3.4 62.2 -5.1 66 c -8.1 3.7 -8.9 5.5 -11.3 4.5 c -0.8 -1.6 -0.5 -3.4 -0.5 -5.2 C 995.8 978.8 994.2 976.9 1001.8 972 z M 1011.6 1056.5 c 0.1 4.1 -2.5 3.6 -13.6 5.2 c -3.8 -10.5 4.1 -13 10.9 -16.6 C 1012.2 1043.3 1011.4 1048.2 1011.6 1056.5 z M 976.4 1036.5 c 0.4 -39.3 -1.7 -45.3 6.6 -50.3 c 14.1 -8.5 10 -19 10 59.1 c 0 3.4 -1.1 5.3 -4.3 6.2 c -4 1.1 -7.1 4.3 -12.3 4.6 c 0.7 -5 -1.7 -9.8 1.1 -14.3 C 976.8 1040.2 976.4 1038.4 976.4 1036.5 z M 979.9 1064.9 c -0.5 -2.3 -0.6 -4.5 1.4 -5.8 c 3.3 -2 6.7 -3.9 10.4 -4.9 c 0.3 0.4 0.6 0.6 0.6 0.8 C 992.4 1062.1 993 1063.8 979.9 1064.9 z M 973.2 993.9 c 3.2 2.6 1.2 39.1 1 42.3 c -0.5 7.7 -4.4 1 -4.3 10.7 c 0 11 0.6 17.2 -5.2 14.9 c -4.7 -1.9 -6.5 2.9 -6.5 -7.9 C 958 997.2 955.4 1006.5 973.2 993.9 z M 973.9 1056.9 c -0.4 3.5 -5.7 -0.4 -2.4 -12.2 C 971.7 1043.7 975.8 1041.6 973.9 1056.9 z M 954.5 1008.3 c 1.3 1.6 0.9 3.2 0.9 4.6 c 0.1 62.2 3.5 54.6 -12.4 57.4 c -2.1 0.4 -3.3 -0.7 -3.3 -3 C 940.4 1025.9 936.8 1012.1 954.5 1008.3 z M 922.7 1047.3 c 0.1 -14.3 -0.9 -18.9 4.1 -21.5 c 6.4 -3.3 10.9 -9.2 11.1 -2.2 c 0 1.4 0.3 25.7 -0.7 32.1 c -1 6.8 2.6 15.9 -3.7 16.7 c -12.4 1.5 -13.9 6.1 -9.3 -21.7 C 924.4 1049.8 922.7 1048.7 922.7 1047.3 z M 905.1 1046.9 c 0 -5 1.1 -8.9 5.3 -11.1 c 5.4 -2.9 9.4 -6.7 9.6 -1.5 c 0.5 13.9 0.2 15 -2.3 16 c -3 1.3 -3.5 15 -2.5 19.2 c -2.5 0.1 -4.5 -0.2 -6.3 0.8 c 0.5 1.8 5.1 1.7 4.3 3.9 c -0.3 0.8 -0.8 1.7 -1.5 1.9 C 903.1 1079.7 905 1067.6 905.1 1046.9 z M 916.9 1063.2 c 0.6 -10 0.3 -9.2 1.5 -9.7 c 0.7 -0.3 1.2 0.6 1.2 1.2 c 0.1 18.9 0.4 18.6 -1.1 18.8 c -1.5 0.1 -1.2 -0.7 -1.2 -10.3 C 917.1 1063.2 917 1063.2 916.9 1063.2 z M 888.2 1053.5 c 0.2 -6.9 4.8 -7.6 9 -9.9 c 6.5 -3.5 5.2 -0.9 5.2 16.2 c 0 0 0 0 0 0 c 0 20.8 2.6 17.5 -11.8 19.4 C 887.5 1079.8 887.6 1078.6 888.2 1053.5 z M 871.5 1063.7 c 0 -2.4 3 -2.3 1.4 -4.4 c -2.1 -2.7 1.9 -3.3 7.3 -6.4 c 6 -3.5 5 -0.9 5 13.1 c 0 0 -0.1 0 -0.2 0 c 0 15.2 2.3 14.6 -10.6 16 C 870.7 1082.4 871.5 1080.7 871.5 1063.7 z M 859.2 1063.6 c 1.6 -0.6 2.9 -2 4.8 -1.6 c 1 7.8 0.6 10.7 -2.9 16.6 c -1.7 3 10.5 4 -5.9 6.9 C 854.7 1067.6 855.1 1065.2 859.2 1063.6 z M 839.2 1080.9 c 0.4 -5.7 -2.4 -10 13 -12.9 c 0 19.4 1.8 18.1 -6.8 19.3 C 837.7 1088.5 838.6 1088.1 839.2 1080.9 z M 824.3 1080 c 0.6 -1.7 1.3 -1.6 10.4 -4.8 c 2.8 3.8 1.8 8 1.7 12 c -0.1 2 -2.2 2.1 -10.6 3.6 C 821.7 1091.6 822.5 1085.2 824.3 1080 z M 816.6 1089.9 c -0.4 3.5 -7 3.6 -8.2 3.3 C 803.8 1087.7 818.1 1074.7 816.6 1089.9 z M 804.1 1088 c 1.1 1.2 1.5 5.9 -1.6 6.5 C 781.5 1098.4 800.4 1084 804.1 1088 z M 789.4 1095 c 0.2 2.6 -1.5 2.4 -7.1 3.2 C 774.4 1094.8 789.1 1089.5 789.4 1095 z M 726.7 1105.3 c 2.5 0.3 0.7 3.8 -1.3 3.5 C 723.7 1108.6 723.5 1104.9 726.7 1105.3 z M 713.1 1103.2 c -0.4 -0.2 -1.3 -0.7 -1.3 -0.9 C 712.5 1100.2 719.1 1102.4 713.1 1103.2 z M 715.4 1106.9 c 1.7 0.4 1.4 3.1 -0.1 3.5 C 708.7 1112.4 709.8 1105.4 715.4 1106.9 z M 700.4 1098.7 c 5.5 -1.8 13 5.7 0.2 5 C 697.7 1103.6 697.9 1099.5 700.4 1098.7 z M 700.6 1107.7 c 4.2 0.2 3.7 6 -0.7 5.6 C 696.5 1113 696.4 1107.5 700.6 1107.7 z M 696 1100.9 c 0.2 4.5 -7.8 4.8 -7.8 -0.6 C 688.3 1094.5 695.8 1095.1 696 1100.9 z M 683.4 1115.2 c -0.8 2.7 -4.2 2.9 -4.5 -0.5 c -0.6 -5.8 4.9 -11.2 4.9 -2 C 683.8 1112.7 683.7 1114 683.4 1115.2 z M 675.2 1091.5 c 1 -0.4 7.9 -0.6 8.1 6.9 c 0.1 5.6 -0.4 6 -5.9 4.9 C 673.4 1102.6 674.4 1095.5 675.2 1091.5 z M 674.4 1108.2 c 2.4 -1.3 4.8 9.3 0.5 10.1 c -1.6 0.3 -1.5 -1.8 -1.9 -5.3 C 673.7 1111.3 672.4 1109.3 674.4 1108.2 z M 662 1094.3 c 0 -5.7 -0.3 -7.1 2.1 -7.1 c 8.1 -0.3 6.8 7.1 6.6 13.4 c -0.1 2.4 -2.2 2.5 -5.9 1.8 c -3.6 -0.7 -3.1 -2.3 -2.8 -8.1 C 662.1 1094.3 662.1 1094.3 662 1094.3 z M 670.8 1117.4 c -0.2 1 -4.6 6.3 -3.6 -7.9 C 667.3 1107.6 672.8 1105.4 670.8 1117.4 z M 661.5 1111.7 c 0.5 -10.4 4.9 1.3 1 8.7 C 661.2 1116.8 661.4 1114.2 661.5 1111.7 z M 656.1 1083.1 c 3.8 1.1 3.2 4.2 3.2 10.2 h -0.1 c 0 6.1 1.5 10 -7 7.6 c -1.6 -0.5 -1.7 -0.8 -2 -17.6 C 650.1 1079.9 654.5 1082.6 656.1 1083.1 z M 654 1122.1 c -3.8 -19.2 5 -17 5.3 -13.4 C 660.2 1120.4 661.4 1121 654 1122.1 z M 648.6 1120.1 c -0.2 4.6 -7 6 -7.3 3.3 c -1.2 -11.4 -1.2 -18.6 3.8 -18.2 C 648.7 1105.6 649.3 1106.6 648.6 1120.1 z M 639.6 1076.8 c 1.9 -0.5 8.1 0.9 7.7 6.5 c -1 16.4 1.7 17.8 -3.2 18.2 c -5.6 0.4 -5.2 -2.4 -5.2 -5.3 C 638.9 1077.4 638.6 1078 639.6 1076.8 z M 627.4 1070.1 c 11.5 1.2 9 10.6 8.9 26.8 c 0 3.1 -4.2 2.4 -7.1 1.5 C 626.6 1097.5 627.2 1096.8 627.4 1070.1 z M 627.8 1114.9 c 0.5 -9.9 -0.3 -12.6 3.8 -12.1 c 5.6 0.8 5.1 2.3 4.8 20.2 c -0.1 2.7 0.4 3.2 -5.9 4.2 c -2.8 0.4 -2.2 -1.9 -2.2 -12.3 C 628.1 1114.9 627.9 1114.9 627.8 1114.9 z M 617.4 1129.3 c -1.2 -4.7 -0.4 -9.3 -0.6 -13.8 c -0.2 -3.3 4.7 -2.7 1.5 -5.7 c -2.7 -2.5 -1.7 -5.6 -1.2 -8.5 c 0.3 -1.7 2.5 -0.7 5.3 0 c 2.3 0.6 2.4 0 2.5 22.5 C 625 1127.7 625 1129.3 617.4 1129.3 z M 615.3 1079.4 c 0.2 0 0.3 0 0.5 0 c 0 -11.5 -1 -16.6 3.6 -14.6 c 6.3 2.8 4.3 4.6 4.7 29.2 c 0 1.7 -0.8 2.4 -2.3 2.4 C 614 1096.9 615.3 1092 615.3 1079.4 z M 604.9 1114.7 c 0 -14.8 -1.1 -18.4 4 -17.2 c 1.8 0.4 6 1.1 4.2 9.9 c -3.5 17.7 0.4 23.7 -4.6 24.5 c -3.9 0.6 -3.1 -0.5 -3.1 -17.2 C 605.2 1114.7 605.1 1114.7 604.9 1114.7 z M 605.6 1057.6 c 6.5 2.2 7.6 3.5 7.5 9.5 c -0.1 26 1 28 -4.4 26.3 c -3.7 -1.2 -4.3 -1.9 -4.4 -6.1 C 603.8 1066 603.4 1063 605.6 1057.6 z M 595 1050.4 c 4.8 1.4 7.4 4.2 7.2 9.5 c -1 29.5 1.4 31.6 -3 30.6 c -3.4 -0.8 -5.8 -1.1 -5.8 -4.2 C 593.4 1052.9 592.9 1054.3 595 1050.4 z M 601.8 1098 c 0.7 40.3 -0.4 34.3 -8.4 36.4 C 587.7 1076.8 601.7 1096.4 601.8 1098 z M 585.9 1043.5 c 6.9 3.2 5.3 2.1 5.2 35.4 c 0 6.1 0.8 7.7 -1.9 8 c -8.2 0.8 -6.5 -7.5 -6.5 -23.2 c 0 0 0.1 0 0.1 0 C 582.7 1045.2 581.8 1041.6 585.9 1043.5 z M 583.2 1089.9 c 8.6 0.8 7.6 -0.6 6.9 39.2 c -0.1 7.6 -6.5 8 -8.5 7.1 c 0 -14.3 -0.4 -15.1 1.6 -16.2 c 0.7 -0.4 0.7 -1.3 0.2 -1.6 C 579.1 1116.2 582.2 1094.3 583.2 1089.9 z M 574 1035.1 c 4.2 1.6 6.5 4.2 6.4 9.2 c -0.5 15.4 0.1 32.6 -0.5 37.4 c -0.3 2.8 -7.9 1.2 -8 -5.7 C 571.7 1038.1 571.4 1037.8 574 1035.1 z M 574.2 1085.7 c 7.9 1.9 4.2 3.6 4.7 27.8 c 0.2 8.5 -2.7 4.1 -2.7 11.8 c -0.1 11.8 0.7 13.8 -2.8 14.2 c -3.9 0.4 -4 -4.2 -3.6 -8.1 C 572.9 1105.3 566.1 1083.7 574.2 1085.7 z M 563.3 1026 c 1 0.2 6.3 3.4 6.3 8.4 c -0.2 45.3 1.6 45.8 -3.9 43.7 c -2.8 -1.1 -4 -2.7 -4 -5.9 C 562.3 1027 560.8 1027.7 563.3 1026 z M 560.2 1085.9 c 0.1 -8.9 6 -4.3 7 -2 c 1 2.3 0.6 51.4 0.6 52.4 c 0 4.5 -0.3 4.8 -4.4 5.7 C 558.7 1143 559.2 1144 560.2 1085.9 z M 551.9 1045.9 c 1 -27.2 -0.7 -27.4 1.4 -27.6 c 2 -0.2 5.9 3.4 5.8 7.5 c -0.7 52.9 0.2 43.4 -0.7 47.2 C 549.6 1076.8 551.6 1055.5 551.9 1045.9 z M 551.5 1075.4 c 6.4 2.5 4.7 0.1 4.6 60.6 c 0 8.5 -5.4 9 -5.8 5.7 C 550 1140.5 550.4 1081 551.5 1075.4 z M 541.8 1029.1 c 0.2 -19.7 0.2 -20.4 2.9 -19.2 c 6.8 3.2 3.8 6.3 4.5 52.6 c 0 2.6 0 5.5 -2.4 5 C 540.3 1066 541.3 1065.8 541.8 1029.1 z M 540.5 1108.8 c 0.1 0 0.2 0 0.3 0 c 0 -37.4 -0.4 -36.4 1.4 -36.9 C 551.6 1069.4 538.4 1210.5 540.5 1108.8 z M 533.3 999 c 4.6 2.2 5.7 5.4 5.7 9.8 c -0.7 54.1 1.4 54.8 -3 53.1 c -3.1 -1.2 -4.9 -3 -4.8 -6.8 C 532 1001.9 530.4 1002.2 533.3 999 z M 536.5 1146.9 c -1.6 -2.6 1.4 -77.9 1.5 -78.9 C 540 1071.5 537.8 1145.2 536.5 1146.9 z M 531.4 1065.5 c 5.2 -0.4 3.7 -0.9 2.3 77.4 c -0.1 3.7 0.1 5.7 -2.5 5.7 C 528.2 1148.6 531.3 1066.5 531.4 1065.5 z M 529.4 1066.2 c -4.3 174.7 -4.4 32.4 -2 -3.8 C 529.8 1063.5 529.4 1064.9 529.4 1066.2 z M 522.4 989.5 c 0.4 -3.3 6.4 3.6 6.3 8.8 c -0.5 33.7 0.2 53.5 -0.5 57.9 c -2.8 -0.4 -3.5 -2.7 -5.3 -3.5 C 520.9 1051.8 522.1 991.9 522.4 989.5 z M 520.6 1105.1 c 0.1 0 0.2 0 0.3 0 c 0 -44.1 0 -42.1 0.1 -44.7 c 0.1 -1 3.7 -3 3.5 5.9 c -1.2 82.5 -0.5 86 -3.5 84.7 C 519.1 1150.2 519.6 1153.7 520.6 1105.1 z M 512.8 979.9 c 0.5 -3.1 6.2 2.6 6.2 9.5 c -0.5 40.5 0.3 51.9 -0.8 60.3 c -5.1 -1.2 -6.4 -4.2 -6.4 -8.8 C 512.5 985.2 511 991.5 512.8 979.9 z M 515.8 1101.4 c 0 -2.8 -0.1 -5.6 0 -8.3 c 0.1 -2.8 0.2 -5.6 0.2 -8.4 V 1057.6 c 0 -0.6 0.3 -1 0.8 -1.2 c 0 -0.4 0 -0.4 0 0 c 0.8 -0.3 1.9 0.1 1.9 1.2 v 93.7 c 0 1.7 -2.7 1.7 -2.7 0 c 0 -2.5 0 -4.9 0 -7.4 c 0 -5.5 0 -10.9 0 -16.4 c 0 -5.6 0 -11.2 0 -16.8 c 0 -1.4 0 -2.8 0 -4.2 c 0 -1.7 0 -3.3 -0.2 -5 c 0 0.1 0 0.3 -0.1 0.4 C 515.8 1101.7 515.8 1101.5 515.8 1101.4 z M 512.2 1052.2 c 3.4 0.9 0.5 98.5 0.4 99.5 c -0.2 2 -3.2 2.6 -3.3 0.1 C 509.3 1150.8 510.9 1053.5 512.2 1052.2 z M 503.5 968.2 c 2.3 -0.8 6 5.2 5.9 11.6 c -0.9 58.9 0.8 60.1 -0.8 63.2 c -5.1 -1.7 -6.5 -4.9 -6.5 -9.7 C 502.9 968.3 501.3 968.9 503.5 968.2 z M 505.7 1153.7 c -2.8 -0.1 0.6 -104.2 0.7 -105.2 c 1.8 0.4 2.7 1 2.8 2.2 C 509.3 1051.9 509 1153.8 505.7 1153.7 z M 502.7 1046.3 c 2.6 1.6 2.1 3.5 2.1 5.1 c -3.5 100.5 -1.6 100.2 -3.8 103.3 C 499.4 1152.3 501.6 1050.2 502.7 1046.3 z M 496.2 958 c 4.7 4.5 3.7 5.9 3.7 19.8 c -0.2 63.3 -0.1 53.4 -0.3 58.5 c -5 -1.9 -6.6 -5 -6.5 -9.4 C 494 963.2 491.9 953.9 496.2 958 z M 497.8 1155.2 c -0.4 1.6 -2.9 2.1 -3.8 0.7 c -0.5 -0.2 -0.9 -0.6 -0.9 -1.2 V 1043.1 c 0 -0.8 0.6 -1.3 1.3 -1.3 c 0.3 -0.3 0.8 -0.4 1.3 -0.3 c 0.2 -0.2 0.5 -0.3 0.8 -0.3 c 0.4 0 0.7 0.1 0.9 0.4 c 0 0 0 0 0 0 C 501.9 1039.5 498 1154.2 497.8 1155.2 z M 484.1 985.4 c 0 -11.6 0 -23.1 0 -34.7 c 0 -9.2 6.8 -0.6 6.7 6.2 c -1.2 74.2 1.3 71 -1.7 71.9 c -6.9 2.1 -4.9 -17.8 -4.9 -43.3 C 484.2 985.4 484.2 985.4 484.1 985.4 z M 486.5 1033.7 c 3.8 1 4.8 3.2 4.7 6.4 c -5.1 121.3 0.1 119.2 -6 119.6 C 483.1 1159.9 482.8 1167.3 486.5 1033.7 z M 476.7 934.3 c 3.2 3.1 4.9 6 4.9 10.1 c -0.6 77.1 0.5 75.8 -1.1 77 c -1.1 0.8 -5.9 -3 -5.8 -9.5 C 475.6 936.7 473.9 938.5 476.7 934.3 z M 476.1 1024.2 c 4.1 2 5.4 4.3 5.3 7.7 c 0 1 -2.2 123 -2.5 126.9 c -0.4 3.8 -5.1 3.8 -5.3 1.7 C 473.1 1156.4 476.1 1046.7 476.1 1024.2 z M 465.6 964.6 c 0 -32.8 -1 -46.9 2.1 -42.7 c 6.4 8.6 4.8 1.4 4.6 81.4 c 0 8 0.4 8.7 -1.5 9.8 c -7.2 -4.7 -5.3 -4.5 -5.3 -48.4 H 465.6 z M 472.8 1024.5 c -3.8 151.7 -0.2 137.8 -8.7 139.4 c -0.9 -8.4 2 -141.3 3.1 -147.6 C 471.4 1017.6 472.9 1020 472.8 1024.5 z M 457.3 909.1 c 8.9 -2.9 6.6 37.1 6.6 96.3 c -3.1 -1.5 -4 -3.3 -5.4 -4.6 C 455.4 997.9 456.3 909.4 457.3 909.1 z M 457.3 1005.5 c 4.8 3.3 6.4 6.6 6.3 11.6 c -4.5 149.6 -2.2 146.8 -4.4 148.4 C 453.8 1169.4 451.7 1177.4 457.3 1005.5 z M 445 1169.7 c -0.8 -4.8 2.4 -161.2 3.5 -171.5 c 5.6 2.3 6.4 3.4 6.3 9 C 451.3 1185.3 453.7 1169.7 445 1169.7 z M 448.8 897.4 c 6.3 3.8 8.1 1.3 5.6 98.4 C 445.9 990.6 448.8 995.5 448.8 897.4 z M 441.3 884.9 c 6.3 7.3 4.5 -1.2 4.5 102.5 c -6.3 -3.4 -5.7 -6.8 -5.7 -10.3 C 440.3 879.7 439.8 886.4 441.3 884.9 z M 445.9 997.9 c -11.7 394.8 -10.3 -4.9 -6.1 -10.3 C 443.7 989.9 446 992.7 445.9 997.9 z M 433.2 871.2 c 2.4 4.7 5.2 8.8 5.1 14.4 c -0.4 52.7 0.1 80.9 -0.5 92.4 c -4.7 -3.1 -6.6 -6.3 -6.5 -11.3 C 432.4 869.8 430.5 873.7 433.2 871.2 z M 433.4 1163.7 c -0.2 9.4 0.8 10.4 -7.4 10.9 c 1.8 -65.2 3.2 -130.4 5.1 -196.3 C 438.9 983.6 437 969 433.4 1163.7 z M 423.6 858.2 c 3.7 4 6.1 8 6 13.8 c -0.8 50.8 0.5 86.9 -0.8 96.4 c -3.7 -3.2 -5.7 -5.9 -5.7 -10.4 C 423.5 893.6 423.1 863.7 423.6 858.2 z M 429 978.4 c -14.3 435.4 -8.8 19.5 -6.6 -10.2 C 426.8 970.9 429.1 973.4 429 978.4 z M 417 845.8 c 5 6.6 3.9 -6.4 3.9 112.5 c -4 -3.7 -5.7 -6.6 -5.7 -10.7 C 416.2 840.2 415.1 847.5 417 845.8 z M 419.4 968.3 c -12.9 478.2 -8.4 3.1 -4 -10.1 C 418.8 961.4 419.5 964.6 419.4 968.3 z M 407.9 831.1 c 7.6 8.8 4.9 1 4.9 117.7 c -4.6 -3.6 -5.8 -6.9 -5.7 -11.2 C 407.2 923.4 406.9 851.1 407.9 831.1 z M 405.8 1152.8 c -0.5 25.7 0.2 26.8 -4.5 27.1 c -0.6 -6.3 4.3 -224.8 5.1 -231.7 C 411.6 948.8 410.4 937.3 405.8 1152.8 z M 399.9 818.1 c 4 4 5.1 5.7 5.1 9 c -0.2 121.1 -0.1 107.7 -0.9 111.3 C 398.5 929.6 394.2 940.1 399.9 818.1 z M 397.2 936.6 c 4.7 1.3 3.6 1.4 3.6 34 C 395.5 971.1 396.8 969.4 397.2 936.6 z M 396.2 837.4 c 0 -0.4 0 -0.9 0 -1.3 C 396.8 836.4 396.5 836.9 396.2 837.4 z M 395.9 847.2 c 0.2 0 0.4 0 0.6 0 v 32.6 C 395.7 874.6 395.9 872 395.9 847.2 z M 1666.2 1297.4 c -6.4 -0.5 -6.5 -4 -8.3 -1.7 c -3.7 4.6 -14 2.9 -20 2.2 c -6.6 -0.8 -3.6 -7 -7.7 -7.8 c -3.9 -0.7 -6.4 0.3 -7.5 1.5 c -6.6 7.6 -7.1 0.5 -9.5 1.5 c -7.8 3.4 -5.7 -2.1 -9.6 0 c -3.3 1.8 -5.2 5.9 -9.6 4.3 c -5.5 -2 -6.4 3 -8 4.7 c -5.5 5.7 -6.4 -2.3 -8.9 -1.5 c -3.4 1.1 -7.3 0.6 -10.4 2.8 c -3.2 2.3 -4.9 4.7 -8.4 2.2 c -11.2 -8.3 -15.5 9.1 -17.3 8.8 c -1 -0.2 -2.7 -1 -2.7 -1.5 c 0 -4.6 -5.4 -6.8 -7.9 -0.8 c -1.7 3.9 -4.8 -4.2 -15.5 -4.2 c -8.8 -0.1 -9.7 0.2 -11 -0.8 c -7.7 -6.2 -9.8 6.7 -16 4.2 c -2.2 -0.9 -7.4 -0.2 -8.2 -1.4 c -2.9 -4.1 -6.9 -3.2 -13.2 -4.1 c -1.6 1.3 0.5 2.3 0.2 3.4 c -0.4 1.2 -1 2.3 -0.6 3.7 c 1 4.6 -11.4 4.1 -12.2 3.1 c -1.9 -2.4 -4.1 -3 -6.9 -1.8 c -2.3 1 -5.1 0.2 -6.8 3.1 c -3.3 5.8 -7 -1 -11.7 3 c -5.4 4.6 -6.6 -2.6 -9.4 0.1 c -7.3 7.1 -21.4 2.1 -24.9 3.6 c -6 2.4 -23.6 1.4 -26.7 -2.8 c -3.2 -4.4 -5.5 4.3 -11 2 c -8.8 2.3 -17.9 -1.2 -26.7 1.6 c -4.2 -1.2 -8 1.2 -12.1 1.5 c -35.2 2.4 -17.5 -3.3 -29.2 -5.1 c -15 -2.2 -15.9 9.7 -25.9 6.1 c -6.9 -2.4 -14.7 0.5 -20 -2.6 c -6.8 -4 -12.8 0 -16.5 0.2 c -7.5 0.4 -3.1 -5.3 -11.4 -4.8 c -1.2 0.1 -7.5 0.4 -8.2 -1.2 c -1.6 -3.8 -2.6 -2.6 -27.1 -2.8 c -6.7 -0.1 -8.3 3.7 -14 2.8 c -6.4 -1.1 -38.7 -1.4 -38.7 -1.4 c -4.4 -3.6 -25.1 -4.7 -26.6 -2.3 c -2.1 3.4 -3 2.7 -26.6 2.5 c -11.2 -0.1 -5.8 -10.8 -32.2 6.4 c -2.4 1.6 -3.7 -1 -5.4 -0.8 c -1.7 0.2 -2.5 3.2 -4.3 2.5 c -2.2 -0.9 -4.7 -0.3 -6.8 -1.9 c -11.3 -8.6 -18.4 -0.8 -25.1 -3.7 c -0.8 -0.3 -1.9 -0.5 -2.5 -0.2 c -7.3 3.6 -17.7 -0.9 -21.5 3.7 c -1.9 2.4 -8.4 3.2 -9.6 -0.2 c -3.4 -9.8 -11.4 2 -17.5 0.7 c -0.5 -0.1 -1.5 0.3 -1.8 0.7 c -3.7 6.6 -11 0.3 -14.8 3.1 c -6.2 4.6 -8.3 -2.3 -23.7 0.8 c -1 0.2 -9.7 1.8 -10.9 0.8 c -8.7 -6.7 -14.4 5 -22.2 -0.6 c -10.8 -7.8 -14.5 3.7 -20.4 2.3 c -3.8 -0.9 -4.1 2.3 -8.8 1 c -9.6 -2.7 -6.6 4.1 -12.4 3 c -15.7 -3.1 -39.3 5.3 -44.3 0.1 c -6.5 -6.8 -12.7 0.6 -26 -0.2 c -6.7 -0.4 -3.8 -10 -8.6 -7.6 c -4.8 2.4 -2.7 11.4 -10.5 9.4 c -12 -3.2 -19.1 2.5 -24.6 1.6 c -14.7 -2.4 -21.3 2.8 -25.3 -4 c -1 -1.6 -3.4 -2 -4.7 -0.8 c -3.7 3.6 -8 1.6 -11.7 0.9 c -15.5 -2.9 -23.7 0.9 -32.9 -1.9 c -4.4 -1.3 -6 1.4 -8.3 0.4 c -5.9 -2.4 -13.9 2.5 -18.7 0.7 c -2 -0.7 -20.2 -3.6 -25.6 -0.3 c -6.4 4 -11.8 -4 -18.8 1.9 c -1 0.9 -32.9 3.9 -47.1 -1.8 c -2.4 -0.9 -9.3 2.1 -15.6 -0.4 c -1.4 -0.5 -7.9 -2.1 -8.9 -1 c -4.5 4.7 -16.6 -2.5 -32.5 -1.9 c -4.9 0.2 -8 -6.7 -19.2 -2.4 c -9.8 3.7 -25.9 1.9 -28.3 -0.6 c -2 -2.1 -4.7 -2.1 -7.4 -1.9 c -7.8 0.7 -14.9 -2.2 -22.2 -4.2 c -3.6 -1 1.3 -45.8 0.6 -80.8 c -0.7 -41.2 1024 -175.5 1290.8 -187.2 c -0.4 19.2 1.2 25.1 -2.3 26.1 c -2.7 0.8 4.8 1.3 0.2 3.1 c -0.6 0.2 -1.3 0.3 -1.5 1.1 c 0.7 2.1 5.9 3.8 5.9 10.4 C 1684.1 1307.2 1695.2 1299.6 1666.2 1297.4 z M 1675.1 354.3 c 5.4 -9.1 3.1 297.1 3 298.2 c 0 1 -0.6 356.7 -1.9 307.3 C 1675.6 937 1669.5 363.8 1675.1 354.3 z M 1686 447.3 c -4.2 4.5 1.9 74.4 -3.9 79.3 c -0.8 0.1 -1.1 -73.7 -1.1 -74.4 c 0.4 -117.4 -6.8 -99.5 6.7 -112.6 c 0.5 0.1 0.9 0.2 1.4 0.3 C 1686.1 406.5 1691.2 441.9 1686 447.3 z M 1692.3 168.4 c -0.5 125.4 0.4 166.3 -17.4 171.7 c -1.9 -1 -1.6 -2.8 -1.6 -4.5 c -0.3 -238.6 -2.7 -207.6 15.5 -237.6 C 1694.8 88.1 1692.5 118.9 1692.3 168.4 z M 1807.4 147.3 c -1.1 2.5 -14.8 25.8 -16.3 20.7 c -0.1 -0.4 -0.5 -0.9 -0.4 -1.2 C 1792.5 155 1783 138.6 1807.4 147.3 z M 1794.4 461.4 c -3.5 -0.2 -4.2 -1.4 -4.3 -3 c 0 0 0.3 -123 0.3 -123 c 0.4 -6.2 2.6 -0.8 21.9 -2.1 c 10.8 -0.7 8.4 -2.2 8.4 94.6 h -0.1 C 1820.5 470.4 1826.4 463.2 1794.4 461.4 z M 1817 697.7 c -20.7 -1.9 -26.2 2.4 -26.6 -4.2 c -0.5 -10.1 -0.1 -151.9 -0.1 -153 c 0.2 -6.7 0.3 -4.2 16 -3.9 c 18.1 0.3 14.3 8.2 13.8 140.3 C 1820.2 694 1821.9 698.1 1817 697.7 z M 1751.9 186.5 c 0.1 0 0.1 0 0.2 0 c 0 -12.2 0 -24.5 0 -36.7 c 0 -12.9 0.9 -4.4 31.8 -4.7 c 5.3 -0.1 3.4 0.4 3.6 26.8 c 0.1 10.6 -30.8 48.4 -31.8 54.8 c -0.4 2.3 -3.6 2.8 -3.7 -0.9 C 1751.9 215 1751.9 206.5 1751.9 186.5 z M 1795.4 945 c 2.9 0.3 2.9 2.6 2.4 8.4 c -0.2 2.5 -1 3.4 -3.5 4 c -3.3 0.9 -3 -1.1 -3 -5.3 h 0 C 1791.3 949 1790.5 944.5 1795.4 945 z M 1791.2 1053 c -3.6 4 -9.2 -6.8 -9.8 -8 C 1806.1 1038.5 1796.2 1047.5 1791.2 1053 z M 1780.6 926 c 4.9 -0.4 4.2 0.1 3.9 26.6 c 0 3.7 0.3 6.2 -7.1 5.3 c -1.1 -2.6 -0.6 -5.3 -0.6 -7.8 C 1776.7 927.9 1776 926.4 1780.6 926 z M 1777.2 206 c 10.8 -15.6 6.3 11.2 6.3 17.7 c 0.1 44.1 1.7 42.4 -3.9 42.3 C 1749.2 265.3 1734.9 266.8 1777.2 206 z M 1751.4 535.8 c 2.2 -1.4 4.1 -1.8 6.1 -1.7 c 28.5 1.5 25.8 -0.1 25.8 7.5 c 0.8 170.1 1.4 155.5 -4.9 154.9 c -6.9 -0.7 -24.1 -3.1 -26 -3.4 C 1750.8 690.3 1752.4 586.5 1751.4 535.8 z M 1751.7 423.8 c -0.7 -103.6 -5.5 -95 18.5 -92.6 c 11 1.1 13.6 -1.1 13.5 4.7 c -2.4 131 3.5 124.4 -4.4 124.9 c -10.2 0.5 -22.5 -2.7 -24.7 -2.8 C 1750.4 457.8 1752 456.8 1751.7 423.8 z M 1779.8 778.9 c 4.4 0.2 4.6 -1 4 24.3 c 0 0 0.7 113.1 0.7 113.1 c 0.7 7.8 -10.2 0.7 -11.1 13.5 c -0.5 6.5 0.8 8.6 -2.4 9.3 c -4.8 1.1 -8.7 1.1 -7.1 6.4 c 1.2 4 2.9 15.6 -3.5 15.8 c -10 0.3 -8.2 0.8 -8.2 -22.3 h 0 c 0 -5 0.1 -10.1 0 -15.1 C 1747.4 756.4 1747.4 777.5 1779.8 778.9 z M 1769.9 959.3 c 0 1.9 -3.1 2.9 -3.2 0.4 c -0.1 -13.4 -0.4 -14 1.7 -15 C 1770.1 945.9 1770 946.4 1769.9 959.3 z M 1739.8 143.7 c 1 -0.2 9.6 -3 9.1 0.8 c 0 0 0.3 47.2 -0.8 60.3 c -2.5 28.1 6.9 27.4 -11.9 49.3 c -2.7 3.1 -6.5 -3.9 -6.4 -10.2 C 1731 152.9 1727.6 145.9 1739.8 143.7 z M 1741.5 832.9 c -0.1 -11.1 2.2 -3.7 2.6 -13.9 c 0 -1.3 1 -21.9 1.9 -24.1 c 2.1 1 1.7 2.9 1.7 4.6 c 1 168.2 1.4 161.8 -6.7 161.1 c -3.4 -0.3 -2.5 0.2 -3.2 -68.3 C 1737.1 830.4 1741.7 890.6 1741.5 832.9 z M 1741.8 258.3 c 1.4 -1.8 1.9 -4.4 4.6 -5.8 C 1752 267.6 1739 262 1741.8 258.3 z M 1733.1 401.2 c 0.3 -12.5 -1.7 -66.5 9.7 -69 c 5.9 -1.3 4.3 -5.3 4.9 73.6 c 0.4 54 2.7 52.9 -10.7 45.2 C 1730.2 447.1 1732.8 412.8 1733.1 401.2 z M 1740.2 565 c -0.2 -8.6 -0.2 -10.1 1 -12.3 c 2.2 -4 -0.3 -11.1 5.1 -12.8 c 1.8 4.7 1.9 9.4 1.2 14.2 c -1.9 11.6 0.2 132.2 0.2 133.2 c 0 3.1 -0.9 3.8 -4 3.4 c -7 -0.8 -6.6 9.4 -7.4 -113 C 1736.1 568.1 1740.3 572.8 1740.2 565 z M 1737.8 1103 c 2.6 -14.5 -2.8 -15.6 5.5 -23.3 c -2.5 -0.6 -4.1 -2.1 -3.2 -4.5 c 1.4 -3.8 -0.8 -5.3 -0.8 -8.8 c -0.1 -9.7 7 -0.6 7.1 -9.8 c 0.1 -7 -7.4 -1.4 -6.1 -7 c 0.4 -1.9 0.4 -1.7 13.5 -2.4 c 2.9 -0.2 2.7 0.7 15.2 15.7 c 1.8 2.2 2.4 14.6 0 17 c -3.9 4 -27.2 32.3 -29.6 35 C 1738 1110.5 1737.2 1106.8 1737.8 1103 z M 1758.1 1204.6 c -1.3 1.4 -8 5.2 -4.5 10.6 c 2.3 3.6 -20.9 82.1 -14.7 -39.8 c 4.5 3.1 6.5 7.1 9.3 10.4 C 1761.6 1201.1 1761.2 1201.3 1758.1 1204.6 z M 1769.5 1173.4 c -0.4 1.6 -2.4 1.8 -3.8 0.5 c -12.2 -11.6 -10.2 -13.8 -9.1 -18.6 c 0.3 -1.5 2.1 -1.1 10.6 -1.1 c 0 0.1 0 0.2 0 0.3 C 1785.7 1154.5 1772.6 1160.7 1769.5 1173.4 z M 1795.8 1110.5 c -2.3 11.6 -7.8 16.7 -13.1 23.4 c -2.6 3.3 -4.5 2.6 -14.9 2.6 c 0 0 0 0 0 0 c -12.6 0 -13 0.7 -13.3 -3.7 c -0.4 -5.3 -1.2 -3 29.3 -40 c 6.2 -7.6 7.2 -0.9 12.8 4.5 C 1800.3 1100.8 1797.5 1101.6 1795.8 1110.5 z M 1816.9 953 c -2.5 -3.3 1 -14.9 0.4 -16.6 c -2.2 -6 -5.7 -0.2 -4.8 1.8 c 2.2 5 0.9 10.3 1.1 15.5 c 0.1 1.9 -1.9 2.5 -8.1 2.4 c -4.9 0 -2.9 -1.7 -3.9 -7.2 c -1.7 -9.9 -7.3 -8.2 -9.8 -9.6 c -0.8 -2.3 -0.4 -4.7 -0.4 -7.1 c -0.2 -154.9 -10.6 -165 25 -150.3 c 3.7 1.6 6.7 3.3 4.9 8.1 C 1821.2 790.8 1825.3 964.3 1816.9 953 z M 1821.2 265.9 c 1 3.8 -33.7 3 -30.9 -2.2 c 0.8 -1.6 -2.3 -74.7 4.5 -84.5 c 19.9 -28.7 17.4 -30.7 23.9 -24.6 C 1825.7 161.2 1819.7 260.3 1821.2 265.9 z M 1824.2 146.8 c 26.1 6.5 23.7 29.6 11.2 12 c -4.5 -6.3 -8.5 -5.7 -12.6 -8.7 C 1821 148.9 1822.1 146.3 1824.2 146.8 z M 1824.4 216.5 h 0 C 1824.4 260.3 1824.4 304.6 1824.4 216.5 z M 1829.8 560 c 4 0.9 4.2 2.4 3.6 12.7 c -0.4 7.6 4.3 4.3 4.2 11.9 c -1.1 76.9 1.5 75 -1.3 77.1 c -4.6 3.4 -3.5 23.7 -2.3 24.6 c 3.1 2.2 1.4 5.2 1.8 7.9 c 0.4 2.6 -5.2 4.5 -4.9 1 C 1830.9 695.2 1829.8 570.1 1829.8 560 z M 1837.7 889.3 c -3.6 13.4 3.1 61.6 -3.1 62.3 c -4 0.5 -4.2 -120.1 -2.9 -119.4 c 4.5 2.2 0.4 30.6 3.2 34 c 3.4 4 0.2 13.9 2.8 21.2 C 1837.9 887.9 1837.9 888.7 1837.7 889.3 z M 1838.7 426.9 c 2 6.6 -1.3 16 -0.5 20.4 c 0.4 2.1 4.2 3.6 1.5 5.9 c -4 3.5 -0.8 9.1 -7.1 8.6 c -5.2 -0.4 -1.5 -1 -2.6 -119.2 c -0.1 -7.1 9.3 5.6 7.8 13.2 c 1.7 4.6 2.5 9.9 2.9 39.7 c 0.4 27.2 0.5 26.7 -1.3 28.4 C 1838.6 424.6 1838.5 426 1838.7 426.9 z M 1845.1 182.2 c -1 92.1 1.7 85.7 -5.8 85.8 c -11 0.2 -8.5 6.1 -8.5 -49.7 h 0.1 c 0 -41.2 -1.3 -54.1 3.9 -50 C 1844.6 175.9 1845.2 176.3 1845.1 182.2 z M 2034 218.6 c 0.1 -16 2.5 -5.7 31 13.6 c 18.4 12.4 7.2 20.5 10.4 84.4 c -2.1 4.8 1.1 9.9 -0.9 14.7 c 0.9 3 0.8 5.8 -0.7 8.7 c -2 0 -3.8 -0.8 -5.2 -2.3 c -4 -4.4 -12.3 -7.2 -14.7 -11.7 c -0.9 -1.7 -2.5 -2.4 -4.3 -2.8 c -5.7 -1.5 -9.4 -6.3 -14.3 -9 C 2033.3 313.1 2034 219.6 2034 218.6 z M 2036.3 917.1 c 0.1 -2.4 0.8 -3 3.3 -2.8 c 9.1 0.9 8.4 1.9 8.8 10.7 c 0.2 3.7 -1.9 3.5 -6.8 3.5 v 0 C 2036.1 928.4 2035.8 929.2 2036.3 917.1 z M 2037.5 910.4 c -1.7 -1 -1.2 -2.4 -1.3 -3.6 c -0.8 -14.3 -2.4 -13.8 10.2 -13.8 c 1.8 0 2.9 0.7 2.9 2.7 c 0 4.3 0.3 8.7 -0.3 13.5 C 2044.7 908.3 2040.9 908.8 2037.5 910.4 z M 2034.8 324.6 c 8.3 3.4 12.6 10.1 11.9 18.5 c -4.8 60.3 12.2 626.4 -11 539.8 c -0.5 -2 -0.1 -78.6 0.3 -80 c -2.5 -18.5 -0.2 -133.4 -1.6 -140.2 C 2034.7 661.7 2032.3 327.4 2034.8 324.6 z M 2030.9 923.6 c 0 11.4 -8.9 6 -22.5 8.4 c -5.2 0.9 -0.6 -24.8 -3.1 -33.1 c 0.8 -7.9 -3.2 -582.7 0.2 -596.4 c 30.8 22.3 24.8 8.8 23.9 65.6 c -0.4 27.8 0.3 289.3 1 291.9 c -2.4 6.8 1 13.8 -0.6 20.7 C 2031.3 687.9 2030.9 919.6 2030.9 923.6 z M 1992.4 177.1 c 5.5 4.4 11.4 7.3 16.1 11.9 c 30.5 29.5 18.9 -2.3 21.7 77.9 c 1.5 42.9 0 45.1 -5.2 40.3 c -7.5 -7 -14.6 -9.4 -18.2 -14.8 c -3.4 -5.2 -17.1 -5.4 -16.8 -16.9 c 0.1 -3.5 -0.2 -64.5 1 -73.8 C 1990 197.5 1989.7 182.1 1992.4 177.1 z M 1990.5 294.6 c -0.2 -3.3 9.4 -2 9.1 17.5 c -0.4 24.7 0 151.6 0 152.7 c -0.1 0 -0.2 0 -0.3 0 c 0 60.4 2.4 465.9 2.4 465.9 c 0 3.6 -5.6 4.3 -7.8 2.9 C 1988.5 930.1 1992 319.8 1990.5 294.6 z M 1952.5 143.7 c 31.9 33.5 39.3 2.1 34.3 109 c -0.8 18.3 1 26 -3.9 22.6 c -23.1 -16.2 -19.8 -17.3 -27.9 -21.4 c -11.7 -6 -3.9 -4.8 -7.1 -39.3 c 0 0 0.9 -53.4 0 -64.4 C 1947.6 146 1949.6 140.7 1952.5 143.7 z M 1986.5 305 c 0 0 1.5 627.5 1.5 627.5 c -9.2 6.6 -16.1 -0.1 -20.4 3.6 c -12.7 10.9 -8.9 -660.3 -7.3 -667.2 C 1991.9 292.6 1986.2 284 1986.5 305 z M 1954.5 304 h 0 C 1954.5 255.8 1954.5 245.6 1954.5 304 z M 1909.1 110.7 c 1 -3.1 4.5 1.7 29.8 22.7 c 10.1 8.4 5.8 66.5 5.7 67.5 c -0.1 1 2.1 50.4 -4.8 41.9 c -4.2 -5.1 -13.9 -8.8 -21.6 -17.9 c -4.9 -5.8 -13.7 -5 -10.3 -16.4 C 1909.1 204.3 1905 123.5 1909.1 110.7 z M 1919.8 925.5 c -9.3 -3.8 -3.5 -569.9 -5.7 -682.6 c -0.3 -15.5 4.8 -4.8 27.9 12.2 c 2.4 1.8 3.1 684.2 2.9 684.3 c -20.7 2.2 -20 2.9 -20.2 -1.8 C 1924.5 933.5 1924.6 927.4 1919.8 925.5 z M 1920.4 937.2 c -0.2 1.4 -0.3 2.7 -0.7 3.9 c -0.3 1.1 -2.1 1.5 -3 0.2 C 1912.9 935.3 1918.7 922.3 1920.4 937.2 z M 1911.2 924.3 c -2.2 0.3 -2.2 -0.2 -2 -11 C 1909.2 912.3 1911.2 905.2 1911.2 924.3 z M 1910.2 368.7 c 0.1 -145.4 0.1 -211.3 0.1 0 C 1910.2 368.7 1910.2 368.7 1910.2 368.7 z M 1910 929.7 c 1.1 -1.7 2.1 5.6 0.9 13.3 C 1908 941.3 1908.4 932.1 1910 929.7 z M 1884.5 117.4 c -0.2 -21.1 0.3 -29.8 3.6 -27 c 22 18.9 16.2 2.2 16.2 122.6 c -2.7 0.3 -3.9 -0.7 -5 -1.7 C 1876.4 192.5 1885.4 212.1 1884.5 117.4 z M 1895.7 914 c 1 29.3 0.8 28.5 -0.1 30.1 c -3.5 6.1 -2.5 -1.9 -3.7 -170.5 c 0 -0.6 -4.2 -355.3 -4.5 -355.8 c -1.8 -2.9 -1.3 -125.7 -1.3 -126.7 c 0.5 -90.5 -12.3 -90.6 14.7 -68.7 c 4.7 3.8 2 650.6 3.7 675.4 C 1905.1 908.1 1895.4 902.7 1895.7 914 z M 1900.1 912.7 c 1.3 -3 4.4 -3.4 4.7 0.6 c 0 0.3 0 24.3 0 24.9 c -0.1 3.1 -0.4 6.4 -3.5 5.8 C 1898 943.3 1899.5 914.1 1900.1 912.7 z M 2069.5 1033.1 c -35.3 1 -51.7 2.3 -51.7 2.3 c -294.2 8 54.4 -21.7 54.3 -5.2 C 2072.1 1031.9 2071.5 1033 2069.5 1033.1 z M 2077 920.4 c -0.1 4 0.3 7.5 -21.2 6 c -4.2 -0.3 -3.9 -557.5 -4.7 -561.7 c 2.2 -7.8 -2.3 -30.7 2.7 -27.4 c 21.5 14.6 21.1 13.6 21.1 18.9 c 0.3 84.1 -0.9 171.4 0.7 180 c -1.5 3.8 -0.6 170.6 0.3 176.2 c -1.9 5.6 1.5 11.4 -0.6 17 C 2076.1 731.7 2077.3 903.3 2077 920.4 z M 2093.4 923.2 c -11.8 0.7 -11.2 3.6 -11.1 -7.2 c 0 -3.8 -1.4 -79.1 -1.8 -79.8 c -0.1 -7.5 -2.6 -470.5 -0.5 -480.4 c 23.8 15.2 12.3 -17 16.7 335.4 C 2099.6 933.2 2098.4 922.9 2093.4 923.2 z M 2082.8 347.5 c -5 -2.9 -4 -6.1 -4 -20.7 c 0 0 0.1 0 0.1 0 c -0.4 -95.1 -2.7 -86.2 11.3 -75.9 c 35.8 26.3 33.4 8.8 30.6 105.5 c -0.2 5.3 2.9 16.9 -2.8 14.5 c -10.8 -4.6 -14.2 -12.1 -19.6 -14 C 2092.6 354.9 2088.1 350.6 2082.8 347.5 z M 2119.8 920.6 c -4.5 1.3 -10.9 -0.1 -10.9 -0.1 c -6.9 3.4 -5.2 -1.2 -5.5 -16 c -0.4 -15.5 -5 -369.5 -2.8 -377.1 c -0.2 -1.4 -1.3 -148.1 1 -155.5 c 1.6 -0.3 2.5 0.2 3.5 0.8 c 16.1 10.8 16.8 10.2 16.7 15.1 c -1.3 104.8 1.2 414.3 1.4 415.3 c -1.2 11.5 0.9 23 0.5 34.5 C 2120.5 920.3 2129.6 917.9 2119.8 920.6 z M 2125.9 327.9 c 0 -57.9 -4.3 -54.6 14.4 -41.1 c 34.6 25.1 29.1 16 29 56.4 c 0 1 -0.2 55.3 0.2 58.2 c 1.1 9 -18.1 -11.4 -24.1 -11.9 c -24.6 -16.9 -19.2 -3.6 -19.2 -61.6 C 2126 327.9 2126 327.9 2125.9 327.9 z M 2131.1 918.9 c -4.5 0.3 -4 -127.8 -4 -143.6 c 0 0 0 0 0 0 c 0 -1 0.1 -166.6 -1.3 -172.5 c 1.4 -13.5 -3 -217.5 3.6 -213.3 c 27.7 17.3 11.3 -38.7 20 523.5 C 2149.5 917.7 2145.5 917.9 2131.1 918.9 z M 2170.8 913.4 c -1.2 1.8 -3.4 0.3 -4.8 1.4 c -1.7 1.4 -3.8 1 -5.7 1 c -8.9 0.2 -5 6.4 -6.9 -47.3 c -0.9 -24.4 -0.5 -178 -2 -186.4 c 0 0 -1.3 -237.2 0.9 -277 c 5.9 2.6 10.1 6.1 14.7 9 c 4.6 2.8 0.7 103.8 2.9 107.1 C 2168.2 529.4 2174 908.8 2170.8 913.4 z M 2174.8 316 c 0.4 -8.3 5.4 1.3 36.2 19.5 c 6.9 4.1 12.2 4.6 8.3 100.8 c -4.4 -1.7 -8.2 -3.9 -11.3 -6.9 c -5 -4.7 -33.2 -16.9 -33.9 -24.7 c -0.7 -8.7 0.2 -51.9 0.5 -52.7 C 2174.1 350.3 2174.6 319.4 2174.8 316 z M 2186.3 905 c -0.4 -3.4 -1.1 -5.6 1.3 -6.3 C 2198.1 895.6 2185.1 927.7 2186.3 905 z M 2200 911.6 c -4.3 0.7 -4.2 -4 -4 -7.8 c 0.7 -13.9 -9.8 -8.7 -10.1 -18 c -0.5 -18.4 6.4 -6.9 11.9 -12.9 c 3.9 -4.3 -9.6 -8.3 -15.7 -0.5 c -1 1.3 -1.4 2.6 -1.1 11.6 c 0.4 13.4 -4.7 8.5 -1.1 14.3 c 5.8 9.4 -4.6 26.5 -3.1 1.2 c 0.1 -1.9 -2.9 -383.2 -2.9 -383.3 c 1.8 -6.5 -0.9 -81.4 0.6 -91.5 c 0.3 -2.2 -6 -12.2 17.8 5.8 c 12.9 9.7 3.8 38.7 6.7 63.2 C 2199.2 494.7 2203.1 911.1 2200 911.6 z M 2214.8 909.6 c -12.9 10.2 -12.7 -455.6 -9.7 -470.4 c 3 1.1 14.3 6.5 14.3 10.4 c -0.1 49.3 -0.7 49.7 0.8 55.7 c -2.3 5.1 0.9 56 -0.6 60.9 c 0 0 3.6 343.3 3.6 343.3 C 2219.6 908.1 2217.1 907.8 2214.8 909.6 z M 2225.3 346.7 c 3.1 -0.6 46.1 26.8 45.8 32.1 c -0.1 1 2.6 87.6 -0.5 89 c -3.2 1.4 -9.7 -7.7 -13.4 -8.6 c -4.5 -1.1 -32.2 -17.4 -32.4 -20.1 C 2224.1 433.2 2223.9 348.5 2225.3 346.7 z M 2227.7 908.7 c -1.2 -5 -4.2 -454.5 -2.4 -457.2 c 34.1 16.2 29.1 9.7 28.8 129.9 C 2253.3 953.9 2271.8 902.1 2227.7 908.7 z M 2271.3 904.1 c -6.2 0.3 -8.6 3.4 -9.5 -2.2 c -0.2 -1 -4.5 -398.6 -2.5 -427.1 c 0.2 -2.7 3.2 -0.9 11 4 c 2.4 1.5 1.4 -2.5 1.4 90.1 l 0.5 0 c 0 98.9 1.2 257 1.2 257 c 1.9 8.1 1.2 11.1 0.7 64.9 C 2274 901.2 2275.2 903.8 2271.3 904.1 z M 2276.8 381.4 c -0.1 -3.1 0.6 -2.4 41.2 23.3 c 9.6 6.1 7.9 11.5 7.9 54.3 c 0 0 -0.1 0 -0.1 0 c 0 59.5 1.3 38 -12.4 34.3 c -4 -1.1 -4.6 -1.7 -33 -18.8 C 2272.5 469.7 2276.9 391.2 2276.8 381.4 z M 2313.5 899.4 c -4.1 1.5 -31 3.2 -32 3.2 c -6 0.4 -2.5 -212.9 -4.8 -241.2 c 0.7 -3.3 -1.7 -172.3 0.1 -177.8 c 2.7 -0.2 4.2 1.4 5.8 2.3 c 21.8 12.4 28.5 15.3 28.4 25.8 C 2309.6 644.6 2314.5 831.9 2313.5 899.4 z M 2317.3 507.3 c 8.2 3.8 8.3 3.8 8.3 11.6 C 2329.5 1367.7 2309.1 539.5 2317.3 507.3 z M 2372.4 437.8 c 11.6 7 9 6.5 9 93.1 c -15.1 -5.3 -27.4 -14.3 -40.7 -21.1 c -11.7 -5.9 -11.1 1.7 -10.4 -76.4 C 2330.4 406.4 2323.8 408.6 2372.4 437.8 z M 2362.3 881.7 c -5.8 -0.5 -6.8 12.1 -7.5 -20.7 c -0.1 -7.6 0.5 -5.7 10.5 -7.6 c 3.1 -0.6 2.8 -3.8 1.4 -4.2 c -18 -5.6 -16.7 5.5 -16.7 24.6 c -13.3 -3.1 -17.4 4.7 -3.4 6.4 c 4.5 0.5 3.9 5.6 1.1 7.1 c -5.9 3.2 -6 1.6 -10.1 2 c -6.7 0.6 -4.3 0.2 -4.7 -10.5 c 0 -1 -6.5 -367 -0.1 -363.9 c 56.3 27.1 32.2 -1.8 39.3 282.5 C 2374.2 877.2 2377.2 883 2362.3 881.7 z M 2376.8 824.3 c 0 -0.4 0.8 -32.6 0.7 -41.3 c -3.1 -390.4 6.7 -193.1 4.4 -187.8 c 0 0 2.9 280.5 2.9 280.5 C 2372.1 878.2 2381.7 881.1 2376.8 824.3 z M 2400.4 873.1 c -3.5 2.5 -10.1 3.5 -10.3 -0.5 c -2.7 -60.9 -4 -312.8 -3.2 -325.8 c 3.2 -0.4 5.2 1.6 7.3 3 c 36.6 25.5 38.9 8.1 38.8 47.8 C 2431.9 899.2 2449.6 838.2 2400.4 873.1 z M 2437.7 713.8 c 0 -234.4 0 -117.1 0.1 0 H 2437.7 z M 2439.2 562.1 c -3.7 -0.1 -6.8 -1 -10 -2.8 c -46.8 -26.7 -42.8 -19.7 -42.8 -31.8 c -0.1 -79.6 -0.8 -77.9 1.4 -79.4 c 1.6 -1.1 -2.3 -2.8 42.5 23.5 c 7.8 4.6 9.2 8.4 9 12.5 C 2439 496.3 2441.2 533.8 2439.2 562.1 z M 2499.6 790.9 c 0 33 2.7 8.8 -34.9 43.6 c -5.2 4.8 -11.7 7.6 -17.4 11.6 c -4.1 2.9 -2.7 -265.9 -1.5 -267.2 c 3.6 0.6 6.6 2.9 9.8 4.5 C 2507.6 610.7 2499.3 580.7 2499.6 790.9 z M 2501.7 595.4 c -3.4 0.8 -5.8 -0.1 -8.2 -1.4 c -49.8 -26.5 -48.6 -24.5 -48.7 -29.1 c -2.5 -93.1 -1.1 -86.1 7 -81.5 C 2508.5 515.3 2501.7 492.9 2501.7 595.4 z M 2507.3 514.6 c 68.9 35.1 56.1 21 57.6 85.2 c 0 1.6 0.6 28 -1.6 29.8 c -70.9 -35.8 -58 -18 -57.9 -77.5 C 2505.5 515.8 2504.9 517.1 2507.3 514.6 z M 2563.9 765.2 c 0 0 -16.3 9 -20.7 10.7 c -7.2 2.8 -14 7 -18.6 13.9 c -0.8 1.2 -2.1 2.4 -3.5 2.9 c -7.8 3 -14.6 23.2 -13.5 -15.2 c 0 -1 -3.2 -158.7 -0.3 -166.2 c 74.7 33.9 52.7 26.6 58.1 54.1 C 2565.6 666.5 2568.2 763.6 2563.9 765.2 z"
    ></path>
    <path transform="matrix(1,0,0,1,-10.7,-15.6)"
      d="M 1502.7 995.1 C 1503 994.8 1503.3 995 1502.7 995.1 L 1502.7 995.1 z"
    ></path>
    <polygon transform="matrix(1,0,0,1,-12.4,-16.5)" points="1748.7,1055.9 1748.6,1055.5 1748.9,1055.6"
    ></polygon>
  </g>
</svg>